<?xml version="1.0" encoding="utf-8"?>
<!-- Generator: Adobe Illustrator 21.0.0, SVG Export Plug-In . SVG Version: 6.00 Build 0)  -->
<svg version="1.1" id="图层_1" xmlns="http://www.w3.org/2000/svg" xmlns:xlink="http://www.w3.org/1999/xlink" x="0px" y="0px"
	 viewBox="0 0 953.9 1306.7" style="enable-background:new 0 0 953.9 1306.7;" xml:space="preserve">
<style type="text/css">
	.st0{fill:#D60000;}
	.st1{fill:#FFCC00;}
	.st2{fill:#212347;}
	.st3{fill:#FFFFFF;}
	.st4{fill:#F2F2F2;}
	.st5{fill:#F7B239;}
	.st6{fill:#E09B2D;}
	.st7{fill:#E54728;}
	.st8{fill:#F95428;}
	.st9{fill:#333333;}
</style>
<path class="st0" d="M859.7,629.4c-25.4,7.1-43.5,26.9-40.5,44.1s26,25.4,51.4,18.2c25.4-7.1,43.5-26.9,40.5-44.1
	C908,630.4,885,622.3,859.7,629.4 M827.8,663.3c1.2-4.6,7.2-8.6,13.4-8.9c6.2-0.4,10.2,3.1,9,7.6c-1.2,4.6-7.2,8.6-13.4,8.9
	C830.6,671.3,826.5,667.9,827.8,663.3 M862,682.1c-3.1,4.5-10,7.2-15.5,6.1c-5.5-1.1-7.5-5.6-4.4-10c3.1-4.5,10-7.2,15.5-6.2
	C863.2,673.1,865.1,677.6,862,682.1 M863.4,650.9c-6.3,1.8-11.9-0.3-12.7-4.5c-0.7-4.2,3.7-9.1,10-10.9s11.9,0.2,12.7,4.5
	C874.1,644.2,869.6,649.1,863.4,650.9 M891,675.7c-4.6,3.9-11.8,5.1-16.1,2.7c-4.3-2.4-4-7.5,0.6-11.4c4.6-3.9,11.9-5.2,16.1-2.8
	C895.9,666.7,895.6,671.8,891,675.7 M894.2,654.9c-5.7,3-12.5,2.6-15.1-0.9s-0.1-8.7,5.6-11.7c5.7-3,12.5-2.6,15.1,0.9
	C902.4,646.6,899.9,651.9,894.2,654.9"/>
<path class="st0" d="M936.1,667.1L936.1,667.1l-1.4-6.6c0,0-24.3,30.4-71.7,39.5c-47.4,9.1-116.1-12.6-125.2,45.2l2.6,12.1
	c2.9-18.9,9-26.9,14.4-31.1l6.4,29.7c-6.6,5.1-13.8,16.6-15,28.6l1.8,8.4c9.1-57.8,77.8-36.1,125.2-45.2
	c47.4-9.1,71.7-39.5,71.7-39.5l-1-4.5l0,0L936.1,667.1L936.1,667.1z M797.4,742.9c-10.2,1-19.8,2.9-28.2,6.8l-5.9-28.6
	c8-5.1,17.8-6,27.9-7.3L797.4,742.9z M849.9,741c-13.6,0.7-27.9,0.4-41.6,1.1l-6.1-29.1c13.6-0.6,28,0.2,41.8-0.2L849.9,741z
	 M900.2,729c-8.3,3.8-17.9,7.2-28.5,9.5c-3.5,0.7-7.2,1.3-10.9,1.7l-5.9-28.1c3.7-0.4,7.2-0.9,10.7-1.6c10.7-2.2,20.3-5.5,28.8-9.3
	L900.2,729L900.2,729z M904.4,696.3c11.2-6,19.7-12.4,25.8-17.4l5.6,26.8c-5.8,5.2-14.2,12-25.5,18.3L904.4,696.3z"/>
<path class="st1" d="M264.5,562.9c7-3.7,15.5-1.1,19.1,5.9s0.9,15.7-6.1,19.4l-100.8,53.9c-7,3.7-15.5,1.1-19.1-5.9
	s-0.9-15.7,6.1-19.4L264.5,562.9z M299.2,630.3c7-3.7,15.5-1.1,19.1,5.9s0.9,15.7-6.1,19.4l-100.8,53.9c-7,3.7-15.5,1.1-19.1-5.9
	s-0.9-15.7,6.1-19.4L299.2,630.3z M67.4,689.7c-7,3.7-15.5,1.1-19.1-5.9l-30.3-59c-13.1-25.6-3.1-57.4,22.4-71L284,423.6
	c25.5-13.6,56.8-3.9,70,21.7l30.3,59c3.6,7,0.9,15.7-6.1,19.4c-16.2,8.7-22.6,28.9-14.2,45.2c8.4,16.3,28.3,22.4,44.5,13.8
	c7-3.7,15.5-1.1,19.1,5.9l30.3,59c13.1,25.6,3.1,57.4-22.4,71L191.9,848.8c-25.5,13.6-56.8,3.9-70-21.7l-30.3-59
	c-3.6-7-0.9-15.7,6.1-19.4c16.2-8.7,22.6-28.9,14.2-45.2C103.6,687.2,83.7,681.1,67.4,689.7L67.4,689.7z M137.2,690.1
	c13.3,25.9,6.5,57.2-14.6,75.8l24.6,47.8c6,11.6,20.2,16,31.8,9.8l243.5-130.2c11.6-6.2,16.2-20.7,10.2-32.3l-24.6-47.8
	c-27,7.2-56.1-5-69.4-30.9c-13.3-25.9-6.5-57.2,14.6-75.8l-24.6-47.8c-6-11.6-20.2-16-31.8-9.8L53.4,579.1
	c-11.6,6.2-16.2,20.7-10.2,32.3l24.6,47.8C94.8,652,123.9,664.2,137.2,690.1z"/>
<g id="可乐">
	<path class="st2" d="M593.4,857c-5.4-0.1-9.8-4-10.2-9l-15.3-243.3c-0.2-2.7,0.9-5.3,2.9-7.3s4.8-3,7.7-3l170.3,2.8
		c3,0,5.6,1.2,7.5,3.3c1.9,2.1,2.9,4.7,2.6,7.4l-24.7,242.6c-0.5,5-5.1,8.8-10.5,8.7L593.4,857z"/>
	<path class="st2" d="M748.6,605.9c0.2,0,0.5,0,0.8,0.3c0.4,0.3,0.3,0.7,0.3,0.8v0.1L725,849.7c0,0.5-0.6,1-1.2,1l-130.3-2.2
		c-0.6,0-1.1-0.5-1.2-1l-15.2-243.2v-0.1c0-0.2,0-0.5,0.3-0.8c0.4-0.3,0.8-0.3,0.8-0.3L748.6,605.9 M748.9,588.7l-170.3-2.9
		c-11.4-0.2-20.6,8.7-19.9,19.4L574,848.4c0.6,9.5,8.9,16.9,19.2,17.1l130.3,2.2c10.1,0.2,18.8-7,19.8-16.4L768,608.7
		C769.1,598.2,760.4,588.9,748.9,588.7z"/>
	<path class="st3" d="M742.5,668.6c0.6,0,1.1,0,1.2-0.2l6.1-62.1c0,0,0-0.1-0.3-0.2c-0.4-0.1-0.7-0.1-0.8-0.1l-170.3-2.8
		c-0.2,0-0.5-0.1-0.9,0c-0.4,0.1-0.3,0.2-0.3,0.2l3.6,62.2c0,0.1,0.6,0.3,1.2,0.2L742.5,668.6z"/>
	<path class="st0" d="M745.2,835.3l-172.3-2.9l-7.2-101.3l190.7,3.2L745.2,835.3z"/>
	<path class="st3" d="M602.6,756.3l7.1,0.1l-0.5,26.6l15.3-13.1l9.2,0.2L618,783.2l16.4,19.3l-9.2-0.2l-12.2-15l-4,3.4l-0.2,11.3
		l-7.2-0.1L602.6,756.3z M666.7,775.1c2.6,3.3,3.9,7.9,3.9,13.6l-26.3-0.4c0.2,3.2,1.1,5.7,2.6,7.3c1.6,1.7,3.9,2.6,6.6,2.6
		c2.5,0,4.5-0.5,6.1-1.5c1.1-0.8,2.2-2.2,3.3-4.2l7.1,0.1c-0.9,3.1-2.6,5.6-4.9,7.5c-3.1,2.4-7,3.6-11.6,3.5
		c-5.1-0.1-9.2-1.6-12.1-4.7c-3.1-3.2-4.8-7.5-4.6-12.8c0.1-4.8,1.7-8.8,4.8-12c3-3.2,7.2-4.8,12.2-4.8
		C659.6,769.6,663.8,771.5,666.7,775.1L666.7,775.1z M647.5,777.1c-1.5,1.5-2.5,3.5-3,6.2l18.8,0.3c-0.5-5.7-3.6-8.6-9.3-8.6
		C651.3,774.9,649.1,775.6,647.5,777.1L647.5,777.1z M678.1,757.6l7.1,0.1l-0.9,45.6l-7.1-0.1L678.1,757.6z M721.4,776.1
		c2.6,3.3,3.9,7.9,3.9,13.6l-26.3-0.4c0.2,3.2,1.1,5.7,2.6,7.3c1.6,1.7,3.9,2.6,6.6,2.6c2.5,0,4.5-0.5,6.1-1.5
		c1.1-0.8,2.2-2.2,3.3-4.2l7.1,0.1c-0.9,3.1-2.6,5.6-4.9,7.5c-3.1,2.4-7,3.6-11.6,3.5c-5.1-0.1-9.2-1.6-12.1-4.7
		c-3.1-3.2-4.8-7.5-4.6-12.8c0.1-4.8,1.7-8.8,4.8-12c3-3.2,7.2-4.8,12.2-4.8C714.3,770.5,718.6,772.4,721.4,776.1z M702.3,778
		c-1.5,1.5-2.5,3.5-3,6.2l18.8,0.3c-0.5-5.7-3.6-8.6-9.3-8.6C705.9,775.8,703.8,776.5,702.3,778L702.3,778z"/>
	<path class="st2" d="M688.7,692.2c-1.7-0.1-3.5-0.5-5.2-1.3c-5.8-2.9-8.2-9.9-5.2-15.4l78.3-148.4c1.5-2.7,4.1-4.8,7.2-5.6
		c3.2-0.8,6.6-0.3,9.3,1.4l54.9,33.3c5.6,3.4,7.4,10.4,4,15.7s-10.6,6.8-16.2,3.5l-43.9-26.7l-72.6,137.6
		C697.2,690.1,693,692.3,688.7,692.2z"/>
</g>
<g id="爆米花">
	<path class="st4" d="M531.8,605.6l-18.7,275.3l-45.5,0.6l1.7-91.4c14.9-10,24.6-27,24.3-46.3c-0.2-18.1-9.1-34-22.8-43.8l1.8-93.4
		L531.8,605.6L531.8,605.6z M408.9,790.8l3.9,91.4l-45.5,0.6L341.7,608l59.3-0.7l4,93.4c-13.4,10.2-21.9,26.4-21.7,44.3
		C383.7,764.3,393.8,781.1,408.9,790.8L408.9,790.8z"/>
	<path class="st5" d="M470.8,699.8c13.6,9.8,22.6,25.7,22.8,43.8c0.2,19.2-9.4,36.3-24.3,46.3c-8.6,5.8-18.9,9.1-30,9.3
		c-11.1,0.2-21.6-3-30.3-8.5c-15.2-9.6-25.2-26.5-25.5-45.7c-0.2-18.1,8.3-34.2,21.7-44.3c9-6.9,20.3-11.1,32.6-11.2
		C450.2,689.3,461.6,693.1,470.8,699.8z M312.3,552.1c-1.2-3-2-6.3-2.1-9.6c-0.1-14.1,11.1-25.7,25.2-25.8c7-0.2,13.4,2.7,18.2,7.3
		c4.5-13.2,16.9-23,31.7-23.1c10-0.2,19,4.1,25.3,11.1c3.4-9.8,12.8-16.8,23.8-16.9c11.6-0.1,21.5,7.5,24.7,18.1
		c6.1-7.9,15.6-13.2,26.5-13.3c14.8-0.2,27.5,9.2,32.1,22.3c4.6-4.7,10.9-7.7,18-7.7c14.1-0.1,25.7,11.1,25.8,25.2
		c0,3.4-0.5,6.7-1.9,9.8c17.3,1.3,30.9,15.5,31.1,33.1c0.1,8.5-3,16.6-8.5,22.8l-291,3.4c-5.8-6.2-9.1-14.2-9.1-22.6
		C282,568.4,295.2,553.8,312.3,552.1z"/>
	<path class="st6" d="M385.8,551.2c-1.2-3-2-6.3-2.1-9.6c-0.1-14.2,11.1-25.7,25.2-25.8c7-0.2,13.4,2.7,18.2,7.3
		c3.6-10.9,12.6-19.5,24-22.2c-4.5-3.8-10.4-6.1-16.7-6c-11,0.1-20.3,7.2-23.8,16.9c-6.2-6.9-15.3-11.1-25.3-11.1
		c-14.8,0.2-27.2,9.8-31.6,23.2c-4.7-4.6-11.1-7.4-18.2-7.3c-14.2,0.1-25.4,11.7-25.2,25.8c0,3.4,0.7,6.6,2.1,9.6
		c-17.2,1.7-30.5,16.4-30.2,33.9c0.1,8.5,3.4,16.6,9.1,22.6l73.4-0.9c-5.8-6.2-9.1-14.2-9.1-22.6
		C355.3,567.5,368.6,552.9,385.8,551.2z M484.1,510.9c1.5-4.2,4.1-8,7.5-10.9c-1.9-0.3-4-0.6-6-0.4c-4.8,0.1-9.3,1.1-13.4,3
		C476.6,504.3,480.8,507.2,484.1,510.9L484.1,510.9z"/>
	<path class="st7" d="M341.8,608l25.6,274.8l-39.1,0.4L291,608.5h0.3L341.8,608z"/>
	<path class="st8" d="M469.2,790.1l-1.7,91.5l-54.6,0.7l-3.9-91.5c8.7,5.5,19.1,8.7,30.3,8.5C450.3,799.3,460.6,795.9,469.2,790.1z
		 M472.4,606.4l-1.7,93.4c-9.2-6.7-20.7-10.6-32.9-10.5c-12.3,0.2-23.6,4.3-32.6,11.2l-4-93.4L472.4,606.4L472.4,606.4L472.4,606.4z
		 M582.6,605.1L552,880.6l-39.1,0.4l18.8-275.4l50.6-0.7L582.6,605.1z"/>
	<path class="st3" d="M536.1,819.9c-0.3,0-0.6,0-0.9,0c-4.2-0.5-7.1-4.2-6.7-8.4l17.2-154.6c0.5-4.2,4.2-7.1,8.4-6.7
		c4.2,0.5,7.1,4.2,6.7,8.4l-17.1,154.5C543.1,816.9,540,819.7,536.1,819.9L536.1,819.9z"/>
	<path class="st3" d="M548.7,628.6c0.1,4.2,3.5,7.6,7.7,7.6c4.2-0.1,7.6-3.5,7.6-7.7c-0.1-4.2-3.5-7.6-7.7-7.6
		C552,621,548.6,624.4,548.7,628.6z"/>
	<path class="st9" d="M598.5,582c-0.3-18.6-12.5-34-29.5-39.1c0.2-1.2,0.1-2.6,0.1-3.8c-0.2-18.3-15.2-33-33.5-32.7
		c-5.4,0.1-10.6,1.4-15.1,3.9c-7.8-11.7-20.9-18.6-35-18.5c-9,0.1-17.5,3-24.4,8.3c-6.3-8.2-16.1-13.2-26.7-13.1
		c-10.2,0.1-19.7,5-25.7,12.8c-6.8-4.5-15-7-23.3-6.9c-14.1,0.1-27,7.5-34.5,19.3c-4.6-2.3-9.9-3.5-15.2-3.6
		c-18.3,0.2-33,15.2-32.7,33.5c0,1.2,0.1,2.5,0.2,3.7c-16.9,5.6-28.8,21.4-28.5,40c0.1,9.3,3.3,18.2,9.2,25.4l37.1,273
		c0.5,3.8,3.9,6.7,7.6,6.6l223.7-2.7c3.8,0,7.1-3,7.4-6.8L590,607.7C595.5,600.4,598.6,591.4,598.5,582L598.5,582z M308.5,560.6
		c4.1,5.7,11.4,11.7,22.1,11.6c1-0.1,2.3-0.1,3.4-0.2c4-0.6,7.1-3.9,7-7.9c-0.2-4.6-4.3-7.9-8.8-7.3c-8.5,1.2-12.1-6-12.8-7.5
		c0,0,0,0-0.1-0.1l0,0c-0.6-1.5-1-3-1.2-4.6c-1.3-10.1,6.1-19.4,16.2-20.1c5.2-0.5,10.2,1.4,13.9,4.9c1.5,1.4,3.4,2.2,5.4,2.3
		c3.4,0.1,6.3-2.1,7.3-5.2c3.5-10.6,13.3-17.8,24.5-17.9c7.4-0.1,14.5,3,19.6,8.5c1.4,1.4,3.3,2.5,5.4,2.5c3.5,0.2,6.5-1.9,7.5-5
		c2.5-7,9.2-11.8,16.6-11.9c7.8-0.1,14.9,5,17.3,12.4c0.7,2.2,2.1,4,4.2,5c3.3,1.5,7.2,0.5,9.2-2.3c4.8-6.4,12.4-10.2,20.4-10.4
		c9.8-0.2,18.8,5.3,23.4,13.8c-1.4,2.3-2.9,5.3-3.9,9c-2.7,10.5,0.5,20.9,9.2,29.4c1.4,1.4,3.5,2.1,5.4,2.2c1.9,0,3.8-0.8,5.3-2.3
		c3-3.1,2.7-8.1-0.3-11.1c-4.4-4.4-6.1-9-5-13.9c0.2-0.5,0.4-1.1,0.4-1.5c1.4-4.1,4.6-7.5,8.5-9.3c2.7-1.2,5.8-1.8,9-1.4
		c9.1,0.8,16,8.5,16.1,17.6c0,2.3-0.4,4.6-1.2,6.7c-0.6,1.7-0.7,3.6-0.1,5.3c1,3,3.6,4.9,6.6,5.2c13.3,1,23.9,12.2,24.1,25.7
		c0.1,5.4-1.5,10.7-4.7,15.2l-283.6,3.3c-3.2-4.4-5-9.6-5-15.1C289.6,573.9,297.4,563.7,308.5,560.6L308.5,560.6z M439.1,791.8
		c-26.1,0.3-47.7-20.7-48-46.8s20.7-47.7,46.8-48c26-0.4,47.7,20.7,48,46.8C486.2,769.9,465.1,791.4,439.1,791.8z M437.7,681.7
		c-9.1,0.1-17.7,2.3-25.5,5.7l-3.1-72.7l55.6-0.7l-1.3,72.8C455.5,683.5,446.9,681.6,437.7,681.7z M393.9,615l3.5,82.2
		c-13.3,11.7-21.7,28.9-21.4,48c0.2,20.5,10.3,38.5,25.7,49.8l3.4,79.8l-30.6,0.4l-24.1-259.5L393.9,615L393.9,615z M417.1,803.2
		c6.9,2.5,14.4,3.9,22.1,3.8c7.8-0.1,15.2-1.6,22.1-4.3L460,874l-39.9,0.4L417.1,803.2L417.1,803.2z M476.8,794
		c15-11.6,24.7-30,24.4-50.3c-0.2-19-9-36.1-22.7-47.4l1.4-82.3l43.6-0.5l-17.7,260l-30.6,0.4L476.8,794z M299.7,616.1l35.2-0.5
		L359,875.1l-24,0.3C335.1,875.6,299.7,616.1,299.7,616.1z M545.1,873l-24,0.3l17.8-260.1l35.2-0.5L545.1,873z"/>
	<path class="st9" d="M405.7,589.9c4.2-0.1,7.6-3.5,7.6-7.7s-3.5-7.6-7.7-7.6c-7,0.2-12.8-5.6-12.9-12.5c-0.2-7,5.6-12.8,12.5-12.9
		c4.6-0.1,8.7,2.2,11,6.2c1.3,2,3.3,3.4,5.7,3.6c2.5,0.2,4.7-0.6,6.3-2.3c3.1-3.3,7.4-5.2,12-5.2c9.2-0.2,16.8,7.3,17,16.5
		c0.1,4.2,3.5,7.6,7.7,7.6s7.6-3.5,7.6-7.7c-0.2-17.7-14.8-31.9-32.4-31.6c-5.9,0.1-11.5,1.7-16.3,4.6c-5.2-4.4-11.8-7-18.6-6.8
		c-15.5,0.2-27.9,12.9-27.7,28.4C377.6,577.8,390.2,590.2,405.7,589.9L405.7,589.9z"/>
</g>
</svg>
