<?xml version="1.0" encoding="utf-8"?>
<!-- Generator: Adobe Illustrator 21.0.0, SVG Export Plug-In . SVG Version: 6.00 Build 0)  -->
<svg version="1.1" id="图层_1" xmlns="http://www.w3.org/2000/svg" xmlns:xlink="http://www.w3.org/1999/xlink" x="0px" y="0px"
	 viewBox="0 0 953.9 546.1" style="enable-background:new 0 0 953.9 546.1;" xml:space="preserve">
<style type="text/css">
	.st0{fill:#FFCC00;}
	.st1{fill:#212347;}
	.st2{fill:#FFFFFF;}
	.st3{fill:#D60000;}
	.st4{fill:#F2F2F2;}
	.st5{fill:#F7B239;}
	.st6{fill:#E09B2D;}
	.st7{fill:#E54728;}
	.st8{fill:#F95428;}
	.st9{fill:#333333;}
	.st10{font-family:'MicrosoftYaHeiLight';}
	.st11{font-size:21px;}
	.st12{fill:none;stroke:#000000;stroke-width:3;stroke-miterlimit:10;}
</style>
<path class="st0" d="M648.5,313.7c4.2-2.2,9.2-0.7,11.4,3.5c2.1,4.2,0.5,9.3-3.6,11.5l-60,32.1c-4.2,2.2-9.2,0.7-11.4-3.5
	c-2.2-4.2-0.5-9.3,3.6-11.5L648.5,313.7z M669.1,353.8c4.2-2.2,9.2-0.7,11.4,3.5c2.1,4.2,0.5,9.3-3.6,11.5l-60,32.1
	c-4.2,2.2-9.2,0.7-11.4-3.5c-2.1-4.2-0.5-9.3,3.6-11.5L669.1,353.8z M531.1,389.2c-4.2,2.2-9.2,0.7-11.4-3.5l-18-35.1
	c-7.8-15.2-1.8-34.2,13.3-42.3l145-77.5c15.2-8.1,33.8-2.3,41.7,12.9l18,35.1c2.1,4.2,0.5,9.3-3.6,11.5c-9.6,5.2-13.5,17.2-8.5,26.9
	c5,9.7,16.8,13.3,26.5,8.2c4.2-2.2,9.2-0.7,11.4,3.5l18,35.1c7.8,15.2,1.8,34.2-13.3,42.3l-145,77.5c-15.2,8.1-33.8,2.3-41.7-12.9
	l-18-35.1c-2.1-4.2-0.5-9.3,3.6-11.5c9.6-5.2,13.5-17.2,8.5-26.9C552.7,387.7,540.8,384.1,531.1,389.2L531.1,389.2z M572.7,389.4
	c7.9,15.4,3.9,34.1-8.7,45.1l14.6,28.5c3.6,6.9,12,9.5,18.9,5.8l145-77.5c6.9-3.7,9.6-12.3,6.1-19.2L734,343.6
	c-16.1,4.3-33.4-3-41.3-18.4c-7.9-15.4-3.9-34.1,8.7-45.1l-14.6-28.5c-3.6-6.9-12-9.5-18.9-5.8l-145,77.5
	c-6.9,3.7-9.6,12.3-6.1,19.2l14.6,28.5C547.4,366.7,564.8,374,572.7,389.4z"/>
<g id="可乐">
	<path class="st1" d="M341.9,458c-5.4-0.1-9.8-4-10.2-9l-15.3-243.3c-0.2-2.7,0.9-5.3,2.9-7.3s4.8-3,7.7-3l170.3,2.8
		c3,0,5.6,1.2,7.5,3.3s2.9,4.7,2.6,7.4l-24.7,242.6c-0.5,5-5.1,8.8-10.5,8.7L341.9,458z"/>
	<path class="st1" d="M497.1,206.9c0.2,0,0.5,0,0.8,0.3c0.4,0.3,0.3,0.7,0.3,0.8v0.1l-24.7,242.6c0,0.5-0.6,1-1.2,1L342,449.5
		c-0.6,0-1.1-0.5-1.2-1l-15.2-243.2v-0.1c0-0.2,0-0.5,0.3-0.8c0.4-0.3,0.8-0.3,0.8-0.3L497.1,206.9 M497.4,189.7l-170.3-2.9
		c-11.4-0.2-20.6,8.7-19.9,19.4l15.3,243.2c0.6,9.5,8.9,16.9,19.2,17.1l130.3,2.2c10.1,0.2,18.8-7,19.8-16.4l24.7-242.6
		C517.6,199.2,508.9,189.9,497.4,189.7z"/>
	<path class="st2" d="M491,269.6c0.6,0,1.1,0,1.2-0.2l6.1-62.1c0,0,0-0.1-0.3-0.2c-0.4-0.1-0.7-0.1-0.8-0.1l-170.3-2.8
		c-0.2,0-0.5-0.1-0.9,0s-0.3,0.2-0.3,0.2l3.6,62.2c0,0.1,0.6,0.3,1.2,0.2L491,269.6z"/>
	<path class="st3" d="M493.7,436.3l-172.3-2.9l-7.2-101.3l190.7,3.2L493.7,436.3z"/>
	<path class="st2" d="M351.1,357.3l7.1,0.1l-0.5,26.6l15.3-13.1l9.2,0.2l-15.7,13.1l16.4,19.3l-9.2-0.2l-12.2-15l-4,3.4l-0.2,11.3
		l-7.2-0.1L351.1,357.3z M415.2,376.1c2.6,3.3,3.9,7.9,3.9,13.6l-26.3-0.4c0.2,3.2,1.1,5.7,2.6,7.3c1.6,1.7,3.9,2.6,6.6,2.6
		c2.5,0,4.5-0.5,6.1-1.5c1.1-0.8,2.2-2.2,3.3-4.2l7.1,0.1c-0.9,3.1-2.6,5.6-4.9,7.5c-3.1,2.4-7,3.6-11.6,3.5
		c-5.1-0.1-9.2-1.6-12.1-4.7c-3.1-3.2-4.8-7.5-4.6-12.8c0.1-4.8,1.7-8.8,4.8-12c3-3.2,7.2-4.8,12.2-4.8
		C408.1,370.6,412.3,372.5,415.2,376.1L415.2,376.1z M396,378.1c-1.5,1.5-2.5,3.5-3,6.2l18.8,0.3c-0.5-5.7-3.6-8.6-9.3-8.6
		C399.8,375.9,397.6,376.6,396,378.1L396,378.1z M426.6,358.6l7.1,0.1l-0.9,45.6l-7.1-0.1L426.6,358.6z M469.9,377.1
		c2.6,3.3,3.9,7.9,3.9,13.6l-26.3-0.4c0.2,3.2,1.1,5.7,2.6,7.3c1.6,1.7,3.9,2.6,6.6,2.6c2.5,0,4.5-0.5,6.1-1.5
		c1.1-0.8,2.2-2.2,3.3-4.2l7.1,0.1c-0.9,3.1-2.6,5.6-4.9,7.5c-3.1,2.4-7,3.6-11.6,3.5c-5.1-0.1-9.2-1.6-12.1-4.7
		c-3.1-3.2-4.8-7.5-4.6-12.8c0.1-4.8,1.7-8.8,4.8-12c3-3.2,7.2-4.8,12.2-4.8C462.8,371.5,467.1,373.4,469.9,377.1z M450.8,379
		c-1.5,1.5-2.5,3.5-3,6.2l18.8,0.3c-0.5-5.7-3.6-8.6-9.3-8.6C454.4,376.8,452.3,377.5,450.8,379L450.8,379z"/>
	<path class="st1" d="M437.2,293.2c-1.7-0.1-3.5-0.5-5.2-1.3c-5.8-2.9-8.2-9.9-5.2-15.4l78.3-148.4c1.5-2.7,4.1-4.8,7.2-5.6
		c3.2-0.8,6.6-0.3,9.3,1.4l54.9,33.3c5.6,3.4,7.4,10.4,4,15.7s-10.6,6.8-16.2,3.5l-43.9-26.7l-72.6,137.6
		C445.7,291.1,441.5,293.3,437.2,293.2z"/>
</g>
<g id="爆米花">
	<path class="st4" d="M286.6,205l-18.7,275.3l-45.5,0.6l1.7-91.4c14.9-10,24.6-27,24.3-46.3c-0.2-18.1-9.1-34-22.8-43.8l1.8-93.4
		L286.6,205L286.6,205z M163.7,390.2l3.9,91.4l-45.5,0.6L96.5,207.4l59.3-0.7l4,93.4c-13.4,10.2-21.9,26.4-21.7,44.3
		C138.5,363.7,148.6,380.5,163.7,390.2L163.7,390.2z"/>
	<path class="st5" d="M225.6,299.2c13.6,9.8,22.6,25.7,22.8,43.8c0.2,19.2-9.4,36.3-24.3,46.3c-8.6,5.8-18.9,9.1-30,9.3
		c-11.1,0.2-21.6-3-30.3-8.5c-15.2-9.6-25.2-26.5-25.5-45.7c-0.2-18.1,8.3-34.2,21.7-44.3c9-6.9,20.3-11.1,32.6-11.2
		C205,288.7,216.4,292.5,225.6,299.2z M67.1,151.5c-1.2-3-2-6.3-2.1-9.6c-0.1-14.1,11.1-25.7,25.2-25.8c7-0.2,13.4,2.7,18.2,7.3
		c4.5-13.2,16.9-23,31.7-23.1c10-0.2,19,4.1,25.3,11.1c3.4-9.8,12.8-16.8,23.8-16.9c11.6-0.1,21.5,7.5,24.7,18.1
		c6.1-7.9,15.6-13.2,26.5-13.3c14.8-0.2,27.5,9.2,32.1,22.3c4.6-4.7,10.9-7.7,18-7.7c14.1-0.1,25.7,11.1,25.8,25.2
		c0,3.4-0.5,6.7-1.9,9.8c17.3,1.3,30.9,15.5,31.1,33.1c0.1,8.5-3,16.6-8.5,22.8l-291,3.4c-5.8-6.2-9.1-14.2-9.1-22.6
		C36.8,167.8,50,153.2,67.1,151.5z"/>
	<path class="st6" d="M140.6,150.6c-1.2-3-2-6.3-2.1-9.6c-0.1-14.2,11.1-25.7,25.2-25.8c7-0.2,13.4,2.7,18.2,7.3
		c3.6-10.9,12.6-19.5,24-22.2c-4.5-3.8-10.4-6.1-16.7-6c-11,0.1-20.3,7.2-23.8,16.9c-6.2-6.9-15.3-11.1-25.3-11.1
		c-14.8,0.2-27.2,9.8-31.6,23.2c-4.7-4.6-11.1-7.4-18.2-7.3c-14.2,0.1-25.4,11.7-25.2,25.8c0,3.4,0.7,6.6,2.1,9.6
		C50,153.1,36.7,167.8,37,185.3c0.1,8.5,3.4,16.6,9.1,22.6l73.4-0.9c-5.8-6.2-9.1-14.2-9.1-22.6
		C110.1,166.9,123.4,152.3,140.6,150.6z M238.9,110.3c1.5-4.2,4.1-8,7.5-10.9c-1.9-0.3-4-0.6-6-0.4c-4.8,0.1-9.3,1.1-13.4,3
		C231.4,103.7,235.6,106.6,238.9,110.3L238.9,110.3z"/>
	<path class="st7" d="M96.6,207.4l25.6,274.8l-39.1,0.4L45.8,207.9h0.3L96.6,207.4z"/>
	<path class="st8" d="M224,389.5l-1.7,91.5l-54.6,0.7l-3.9-91.5c8.7,5.5,19.1,8.7,30.3,8.5C205.1,398.7,215.4,395.3,224,389.5z
		 M227.2,205.8l-1.7,93.4c-9.2-6.7-20.7-10.6-32.9-10.5c-12.3,0.2-23.6,4.3-32.6,11.2l-4-93.4L227.2,205.8L227.2,205.8L227.2,205.8z
		 M337.4,204.5L306.8,480l-39.1,0.4L286.5,205l50.6-0.7L337.4,204.5z"/>
	<path class="st2" d="M290.9,419.3c-0.3,0-0.6,0-0.9,0c-4.2-0.5-7.1-4.2-6.7-8.4l17.2-154.6c0.5-4.2,4.2-7.1,8.4-6.7
		c4.2,0.5,7.1,4.2,6.7,8.4l-17.1,154.5C297.9,416.3,294.8,419.1,290.9,419.3L290.9,419.3z"/>
	<path class="st2" d="M303.5,228c0.1,4.2,3.5,7.6,7.7,7.6c4.2-0.1,7.6-3.5,7.6-7.7c-0.1-4.2-3.5-7.6-7.7-7.6
		C306.8,220.4,303.4,223.8,303.5,228z"/>
	<path class="st9" d="M353.3,181.4c-0.3-18.6-12.5-34-29.5-39.1c0.2-1.2,0.1-2.6,0.1-3.8c-0.2-18.3-15.2-33-33.5-32.7
		c-5.4,0.1-10.6,1.4-15.1,3.9c-7.8-11.7-20.9-18.6-35-18.5c-9,0.1-17.5,3-24.4,8.3c-6.3-8.2-16.1-13.2-26.7-13.1
		c-10.2,0.1-19.7,5-25.7,12.8c-6.8-4.5-15-7-23.3-6.9c-14.1,0.1-27,7.5-34.5,19.3c-4.6-2.3-9.9-3.5-15.2-3.6
		c-18.3,0.2-33,15.2-32.7,33.5c0,1.2,0.1,2.5,0.2,3.7c-16.9,5.6-28.8,21.4-28.5,40c0.1,9.3,3.3,18.2,9.2,25.4l37.1,273
		c0.5,3.8,3.9,6.7,7.6,6.6l223.7-2.7c3.8,0,7.1-3,7.4-6.8l30.3-273.6C350.3,199.8,353.4,190.8,353.3,181.4L353.3,181.4z M63.3,160
		c4.1,5.7,11.4,11.7,22.1,11.6c1-0.1,2.3-0.1,3.4-0.2c4-0.6,7.1-3.9,7-7.9c-0.2-4.6-4.3-7.9-8.8-7.3c-8.5,1.2-12.1-6-12.8-7.5
		c0,0,0,0-0.1-0.1l0,0c-0.6-1.5-1-3-1.2-4.6c-1.3-10.1,6.1-19.4,16.2-20.1c5.2-0.5,10.2,1.4,13.9,4.9c1.5,1.4,3.4,2.2,5.4,2.3
		c3.4,0.1,6.3-2.1,7.3-5.2c3.5-10.6,13.3-17.8,24.5-17.9c7.4-0.1,14.5,3,19.6,8.5c1.4,1.4,3.3,2.5,5.4,2.5c3.5,0.2,6.5-1.9,7.5-5
		c2.5-7,9.2-11.8,16.6-11.9c7.8-0.1,14.9,5,17.3,12.4c0.7,2.2,2.1,4,4.2,5c3.3,1.5,7.2,0.5,9.2-2.3c4.8-6.4,12.4-10.2,20.4-10.4
		c9.8-0.2,18.8,5.3,23.4,13.8c-1.4,2.3-2.9,5.3-3.9,9c-2.7,10.5,0.5,20.9,9.2,29.4c1.4,1.4,3.5,2.1,5.4,2.2c1.9,0,3.8-0.8,5.3-2.3
		c3-3.1,2.7-8.1-0.3-11.1c-4.4-4.4-6.1-9-5-13.9c0.2-0.5,0.4-1.1,0.4-1.5c1.4-4.1,4.6-7.5,8.5-9.3c2.7-1.2,5.8-1.8,9-1.4
		c9.1,0.8,16,8.5,16.1,17.6c0,2.3-0.4,4.6-1.2,6.7c-0.6,1.7-0.7,3.6-0.1,5.3c1,3,3.6,4.9,6.6,5.2c13.3,1,23.9,12.2,24.1,25.7
		c0.1,5.4-1.5,10.7-4.7,15.2l-283.6,3.3c-3.2-4.4-5-9.6-5-15.1C44.4,173.3,52.2,163.1,63.3,160L63.3,160z M193.9,391.2
		c-26.1,0.3-47.7-20.7-48-46.8c-0.3-26.1,20.7-47.7,46.8-48c26-0.4,47.7,20.7,48,46.8S219.9,390.8,193.9,391.2z M192.5,281.1
		c-9.1,0.1-17.7,2.3-25.5,5.7l-3.1-72.7l55.6-0.7l-1.3,72.8C210.3,282.9,201.7,281,192.5,281.1z M148.7,214.4l3.5,82.2
		c-13.3,11.7-21.7,28.9-21.4,48c0.2,20.5,10.3,38.5,25.7,49.8l3.4,79.8l-30.6,0.4l-24.1-259.5L148.7,214.4L148.7,214.4z
		 M171.9,402.6c6.9,2.5,14.4,3.9,22.1,3.8c7.8-0.1,15.2-1.6,22.1-4.3l-1.3,71.3l-39.9,0.4L171.9,402.6L171.9,402.6z M231.6,393.4
		c15-11.6,24.7-30,24.4-50.3c-0.2-19-9-36.1-22.7-47.4l1.4-82.3l43.6-0.5l-17.7,260l-30.6,0.4L231.6,393.4z M54.5,215.5l35.2-0.5
		l24.1,259.5l-24,0.3C89.9,475,54.5,215.5,54.5,215.5z M299.9,472.4l-24,0.3l17.8-260.1l35.2-0.5L299.9,472.4z"/>
	<path class="st9" d="M160.5,189.3c4.2-0.1,7.6-3.5,7.6-7.7s-3.5-7.6-7.7-7.6c-7,0.2-12.8-5.6-12.9-12.5c-0.2-7,5.6-12.8,12.5-12.9
		c4.6-0.1,8.7,2.2,11,6.2c1.3,2,3.3,3.4,5.7,3.6c2.5,0.2,4.7-0.6,6.3-2.3c3.1-3.3,7.4-5.2,12-5.2c9.2-0.2,16.8,7.3,17,16.5
		c0.1,4.2,3.5,7.6,7.7,7.6s7.6-3.5,7.6-7.7c-0.2-17.7-14.8-31.9-32.4-31.6c-5.9,0.1-11.5,1.7-16.3,4.6c-5.2-4.4-11.8-7-18.6-6.8
		c-15.5,0.2-27.9,12.9-27.7,28.4C132.4,177.2,145,189.6,160.5,189.3L160.5,189.3z"/>
</g>
<text transform="matrix(1 0 0 1 741.7288 104.2304)" class="st10 st11">获取信息失败</text>
<circle class="st0" cx="694.9" cy="93.4" r="35.7"/>
<polyline class="st12" points="678.2,79.6 687.2,86.5 678.2,93.4 "/>
<polyline class="st12" points="711.7,79.6 701.7,86.5 711.7,93.4 "/>
<path class="st12" d="M683.2,108.4c2.1-4.8,6.8-8,12-8c5.1,0,9.8,2.9,12,7.5"/>
</svg>
