<?xml version="1.0" encoding="utf-8"?>
<!-- Generator: Adobe Illustrator 21.0.0, SVG Export Plug-In . SVG Version: 6.00 Build 0)  -->
<svg version="1.1" id="图层_1" xmlns="http://www.w3.org/2000/svg" xmlns:xlink="http://www.w3.org/1999/xlink" x="0px" y="0px"
	 viewBox="0 0 984.1 914.5" style="enable-background:new 0 0 984.1 914.5;" xml:space="preserve">
<style type="text/css">
	.st0{fill:#606266;}
</style>
<path class="st0" d="M707.5,0C622.8,0,544.2,42.6,492,112.8C440.4,42.6,361.3,0,276.6,0C124,0,0,135.8,0,302.4
	C0,401.7,44.3,471.9,80.2,528C184,691.2,445.5,893.8,456.7,902.2c10.7,8.4,23,12.3,35.3,12.3c12.3,0,24.7-3.9,35.3-12.3
	c11.2-8.4,272.1-211.5,376.5-374.2c35.9-56.1,80.2-126.2,80.2-225.5C984.1,135.8,860.1,0,707.5,0L707.5,0z M832.6,526.3
	c-95.9,134.7-299,288.4-309.1,295.7c-9.5,7.3-20.8,11.2-31.4,11.2c-11.2,0-21.9-3.4-31.4-11.2c-10.1-7.3-209.3-162.7-309.1-301.3
	c-32-50.5-83-113.3-83-202c0-149.2,83-254.2,219.4-254.2c75.7,0,158.2,72.4,204.2,135.2c46.6-62.8,128.5-135.2,204.2-135.2
	c136.9,0,225.5,104.9,225.5,254.2C921.8,407.3,865.2,476.3,832.6,526.3L832.6,526.3z"/>
</svg>
