<?xml version="1.0" encoding="utf-8"?>
<!-- Generator: Adobe Illustrator 21.0.0, SVG Export Plug-In . SVG Version: 6.00 Build 0)  -->
<svg version="1.1" id="图层_1" xmlns="http://www.w3.org/2000/svg" xmlns:xlink="http://www.w3.org/1999/xlink" x="0px" y="0px"
	 viewBox="0 0 977.6 880.5" style="enable-background:new 0 0 977.6 880.5;" xml:space="preserve">
<style type="text/css">
	.st0{fill:#606266;}
</style>
<path class="st0" d="M977.6,295.6C977.6,132.6,849.7,0,692.7,0c-77.6,0.4-151.5,33.2-203.9,90.5C436.4,33.3,362.5,0.5,284.9,0
	C127.8,0,0,132.5,0,295.6c0.1,4.8,0.4,9.6,1,14.4v4c0.7,32.4,7.7,64.3,20.6,94.1c0.4,1.2,0.9,2.4,1.4,3.5
	c86.8,208.4,421,448,435.2,458.8c17.7,13.6,42.4,13.5,60-0.3c12.1-9.5,297.2-214.6,410.3-408.5c3.8-5.9,7.2-12.1,10.4-18.4
	c0.9-1.8,1.7-3.5,2.6-5.4l0.4-0.8c0.4-0.7,0.8-1.4,1.2-2c6.3-12.2,11.8-24.7,16.4-37.6c10.9-26.6,16.8-55,17.5-83.7v-5.5
	C977.4,304,977.6,299.8,977.6,295.6L977.6,295.6z"/>
</svg>
