<?xml version="1.0" encoding="utf-8"?>
<!-- Generator: Adobe Illustrator 21.0.0, SVG Export Plug-In . SVG Version: 6.00 Build 0)  -->
<svg version="1.1" id="图层_1" xmlns="http://www.w3.org/2000/svg" xmlns:xlink="http://www.w3.org/1999/xlink" x="0px" y="0px"
	 viewBox="0 0 411.6 124" style="enable-background:new 0 0 411.6 124;" xml:space="preserve">
<style type="text/css">
	.st0{fill:#EA5D41;fill-opacity:0;}
	.st1{fill:#EA5D41;}
	.st2{fill:#FFFFFF;}
</style>
<g id="icon">
	<rect x="1.1" class="st0" width="123" height="123"/>
	<g>
		<path class="st1" d="M62.6,0C28.6,0,1.1,27.5,1.1,61.5S28.6,123,62.6,123s61.5-27.5,61.5-61.5S96.4,0,62.6,0z M62.6,116.2
			c-30.2,0-54.7-24.5-54.7-54.7S32.4,6.8,62.6,6.8s54.7,24.5,54.7,54.7C117.1,91.7,92.6,116.2,62.6,116.2z"/>
		<circle class="st1" cx="62.6" cy="61.5" r="47.8"/>
	</g>
	<path class="st1" d="M55.4,49.8c0,7.5,6.1,13.6,13.6,13.6s13.6-6.1,13.6-13.6S76.5,36.2,69,36.2C61.4,36.1,55.4,42.2,55.4,49.8z"/>
	<path class="st1" d="M26.4,53.2c0,6,4.8,10.8,10.8,10.8s10.8-4.8,10.8-10.8l0,0c0-6-4.8-10.8-10.8-10.8S26.4,47.3,26.4,53.2
		L26.4,53.2L26.4,53.2z"/>
	<path class="st1" d="M33.9,80.7h53.3V87H33.9V80.7z"/>
	<path class="st2" d="M34.4,89c-1.2,0-2-0.8-2-2V65.2c0-1.2,0.8-2,2-2s2,0.8,2,2V87C36.4,88,35.6,89,34.4,89z M54.6,56.9h-6.5
		c-1.2,0-2-0.8-2-2s0.8-2,2-2h6.5c1.2,0,2,0.8,2,2C56.6,56.1,55.8,56.9,54.6,56.9L54.6,56.9z M87.3,89H43.8c-1.2,0-2-0.8-2-2
		s0.8-2,2-2h41.7V56.9h-2.2c-1.2,0-2-0.8-2-2s0.8-2,2-2h4.3c1.2,0,2,0.8,2,2v32.2C89.4,88,88.6,89,87.3,89L87.3,89z"/>
	<path class="st2" d="M98.9,83.5c-0.4,0-0.8-0.2-1-0.4L93.2,80c-1-0.6-1.2-1.8-0.6-2.8s1.8-1.2,2.8-0.6l1.6,1V59.3l-7.7,4.9
		c-1,0.6-2.2,0.4-2.8-0.6s-0.4-2.2,0.6-2.8l11-6.9c0.6-0.4,1.4-0.4,2,0s1,1,1,1.8v25.8c0,0.8-0.4,1.4-1,1.8
		C99.4,83.5,99.3,83.5,98.9,83.5L98.9,83.5z M68.9,66.2c-9,0-16.1-7.3-16.1-16.1S60.1,34,68.9,34s16.1,7.3,16.1,16.1
		S77.9,66.2,68.9,66.2z M68.9,37.9c-6.7,0-12,5.5-12,12s5.5,12,12,12s12-5.5,12-12S75.6,37.9,68.9,37.9z"/>
	<path class="st2" d="M36.9,66.2c-7.1,0-13-5.9-13-13s5.9-13,13-13s13,5.9,13,13S44.1,66.2,36.9,66.2z M36.9,44.1c-4.9,0-9,4.1-9,9
		s4.1,9,9,9s9-4.1,9-9C45.8,48.1,41.9,44.1,36.9,44.1z"/>
</g>
<g transform="translate(67,2.5987491607666016)">
	<g transform="translate(0,0)">
		<g>
			<path class="st1" d="M159.5,50.2c-3.2-0.2-12.2-0.4-27-0.5l0,0v21c-1.6,1.8-3.6,3.6-5.8,5.4c-2.3,1.8-4.5,3.2-6.8,4.3l0,0
				c-2.4-1.2-4.9-2.9-7.4-5.2c-2.5-2.3-4.5-4.5-6-6.8l0,0c4.1-0.6,8.2-1.6,12.5-3.1l0,0V49.7c-15.6,0.1-25.3,0.3-29.1,0.5l0,0
				l2.8-31.8c8.3-0.1,18-0.6,29.2-1.6s19.6-2,25.5-3.2l0,0c2.7,3.5,4.3,7.1,4.8,10.7l0,0c-2.5,0.6-6.3,1.2-11.5,1.8
				c-5.2,0.6-10.9,1.1-17,1.6l0,0c5.3,0.7,8.9,1.6,11,2.8l0,0l-1.2,9c14.2,0,23.8,0.1,28.8,0.4l0,0
				C161.8,44.1,160.9,47.5,159.5,50.2L159.5,50.2z M118.4,39.5l-1.2-11.3c-2.1,0.1-5.8,0.3-11.2,0.6l0,0l-1,11L118.4,39.5z
				 M109.1,50.9l5.3,5.7L91.6,76.9l-10.4-13L109.1,50.9z M139.9,50.9l25.1,13l-10.4,13l-20.2-20.3L139.9,50.9z M251.8,17.8
				l-1.3,56.1h-0.1c-1.1,1.3-2.7,2.5-4.6,3.7s-3.9,2.2-6.2,2.9l0,0c-2.2-0.8-4.3-2.2-6.5-4s-4.1-3.7-5.7-5.6l0,0
				c1.5-0.1,3.6-0.5,6.2-1.1l0,0c-2.6-0.1-7.4-0.2-14.5-0.2l0,0c-9.1,0-15.5,0.1-19.3,0.4l0,0v-3.5l-1.4-11c1.8,0.1,3.6,0.3,5.3,0.7
				c1.7,0.4,3.6,1,5.6,1.8l0,0v2.7c1.7,0,3.1,0,4-0.1l0,0v-6.2c-6.3,0.1-10.9,0.5-13.8,1l0,0c-1.1-2-1.9-5.2-2.4-9.5l0,0
				c2.5-0.2,4.8-0.4,7.1-0.4l0,0c-1.3-0.4-2.7-1.1-4.2-2s-2.6-1.8-3.3-2.7l0,0c1.9-1.5,3.7-3.3,5.6-5.5l0,0
				c-1.1-0.1-2.4-0.3-3.9-0.9c-1.5-0.5-3-1.1-4.4-1.8l0,0l-1.2,2.3l-18.2-5.3l8-14.3l14.4,9.9c3.8-4,7.1-8.6,9.9-13.9l0,0
				c1.6,0,3.4,0.3,5.4,0.8s3.5,1.1,4.5,1.8l0,0c-0.2,0.5-0.8,1.9-2,4.3l0,0c7.4-0.3,14.7-0.5,22-0.5l0,0
				C243.1,17.6,248.1,17.7,251.8,17.8L251.8,17.8z M239.9,26.6h-3.6c-11.4,0-20.3,0.3-26.8,0.8l0,0l-0.8,1.1
				c1.3,0.3,2.5,0.7,3.9,1.3c1.3,0.6,2.3,1.2,2.9,1.8l0,0c-0.1,0.1-0.1,0.2-0.2,0.4c-0.1,0.1-0.1,0.2-0.3,0.4l0,0
				c10.1,0,17.5,0.2,22.2,0.7l0,0c-0.4,4.6-1.2,8-2.4,10.2l0,0c-2.6-0.6-6.6-1.1-12-1.4l0,0v3.3c7.2,0.1,12.4,0.4,15.8,0.7l0,0
				c-0.1,1.6-0.4,3.4-0.8,5.3c-0.4,2-0.9,3.5-1.5,4.6l0,0c-2.3-0.6-6.8-1-13.4-1.3l0,0v6.1c1,0.1,2.4,0.1,4.2,0.1l0,0v-5.1
				c1.8,0.1,3.4,0.3,4.9,0.6c1.5,0.4,3.3,1,5.4,1.8l0,0l-0.9,7.9v3.4l2.6-0.8L239.9,26.6z M175.4,37.1l18.1,4.1l-1.3,9.8l-18.8,1.8
				L175.4,37.1z M206.4,45.3l6.9-0.2v-3.5h-4.1C208,43.3,207,44.5,206.4,45.3L206.4,45.3z M173,65.5c3.4-1,6.9-2.3,10.6-3.9
				s7.1-3.1,10.1-4.7l0,0l4,5.3c-1.9,2.8-4.2,5.7-7.1,8.7c-2.9,3.1-5.7,5.7-8.5,8l0,0c-1.7-1.1-3.4-3-5.1-5.7
				C175.3,70.6,174,68,173,65.5L173,65.5z M289,21.9c-8.7,0.3-15.4,0.8-20.1,1.4l0,0c-0.9-1.1-1.7-2.5-2.4-4.4
				c-0.7-1.8-1.1-3.5-1.2-5l0,0c7.1-0.5,17.1-0.8,30.1-0.8l0,0c14.5,0,29.5,0.3,45,0.8l0,0c-0.1,1.7-0.5,3.5-1.1,5.3
				s-1.4,3.4-2.4,4.9l0,0c-4.8-0.8-11.5-1.5-20.1-1.9l0,0v2.3c9.3,0.1,15.3,0.2,18.1,0.4l0,0c-0.4,3.1-0.6,7.7-0.6,13.9l0,0v3.4
				c-5.8-0.3-16.3-0.5-31.4-0.5l0,0c-15.1,0-25.6,0.2-31.5,0.5l0,0v-5.9c0-5-0.2-8.8-0.5-11.4l0,0c2.6-0.1,8.7-0.2,18.1-0.4l0,0
				V21.9z M304.6,24.4v-2.6h-3.7v2.6c0.4-0.1,1-0.1,1.9-0.1l0,0C303.6,24.3,304.3,24.4,304.6,24.4L304.6,24.4z M301,34.9h3.7v-3.6
				c-0.4-0.1-1-0.1-1.8-0.1l0,0c-0.8,0-1.5,0-1.9,0.1l0,0L301,34.9L301,34.9z M289,31.3c-1.7,0-2.9,0-3.7,0.1l0,0V35h3.7V31.3z
				 M320.5,31.3c-0.8-0.1-2-0.1-3.6-0.1l0,0v3.7h3.6V31.3z M271.5,44.1c7-0.3,17.4-0.5,31.1-0.5l0,0c13.7,0,24.3,0.1,31.7,0.5l0,0
				c-0.5,3.8-1.5,6.8-2.8,8.8l0,0c-7-0.3-16.6-0.5-28.9-0.5l0,0c-12.2,0-21.7,0.1-28.4,0.5l0,0c-0.7-1.1-1.3-2.4-1.8-4.1
				S271.6,45.7,271.5,44.1L271.5,44.1z M340.9,65.4c-3.8-0.7-9.8-1.3-17.8-1.7l0,0l18.1,6.5l-6,10.9l-20.5-13.2l3.2-4.4
				c-1.5,0-3.9-0.1-7.3-0.2l0,0v8.3c-1.8,1.9-3.8,3.7-6,5.4c-2.2,1.7-4.4,3.1-6.7,4.1l0,0c-2.2-1.1-4.3-2.5-6.5-4.2
				s-4.1-3.5-5.6-5.4l0,0L270.9,81L265,70.1l19-6.8c-8.5,0.3-14.9,0.8-19.1,1.4l0,0c-0.9-1.1-1.7-2.5-2.4-4.4
				c-0.7-1.8-1.1-3.5-1.2-5l0,0c7.3-0.5,18.7-0.8,34.4-0.8l0,0c9.1,0,18.2,0.1,27.4,0.2c9.1,0.2,16.3,0.4,21.5,0.6l0,0
				c-0.1,1.7-0.5,3.5-1.1,5.3C342.8,62.4,341.9,64,340.9,65.4L340.9,65.4z M288,63.2l3.4,4.6l-1.4,0.8c2.5-0.6,4.4-1.1,5.6-1.5l0,0
				v-4L288,63.2z"/>
		</g>
		<g transform="translate(149.25,0)">
		</g>
	</g>
	<path class="st1" d="M134.4,94h2.1v13.6h7.8v1.9h-10L134.4,94L134.4,94z M148.6,107.6h9.3v1.9h-11.4V94.1h11.2v1.8h-9.1v4.8h8.4
		v1.9h-8.4V107.6z M170.6,95.8h-5.2V94h12.5v1.8h-5.2v13.7h-2L170.6,95.8L170.6,95.8z M190,109.5l-1.5-4.5h-6.2l-1.6,4.5h-2.1
		l5.8-15.4h2.4l5.6,15.4H190z M185.3,96.3l-2.4,6.8h4.8L185.3,96.3L185.3,96.3z M206.4,101.8L206.4,101.8c-0.2-4-2-6.2-5.4-6.4l0,0
		c-3.4,0.2-5.2,2.3-5.4,6.4l0,0c0.2,4,2,6.1,5.4,6.2l0,0C204.3,107.8,206,105.8,206.4,101.8z M208.5,101.8L208.5,101.8
		c-0.3,5.1-2.8,7.8-7.5,7.9l0,0c-4.7-0.2-7.3-2.8-7.6-7.9l0,0c0.3-5.3,2.8-8.1,7.6-8.2l0,0C205.5,93.8,208,96.5,208.5,101.8z
		 M220.9,95.8h-5.2V94h12.5v1.8h-5.2v13.7h-2L220.9,95.8L220.9,95.8z M230.3,94h2.1v15.4h-2.1V94z M248.9,98.6L248.9,98.6h-2
		c-0.5-2.1-2-3.1-4.3-3.2l0,0c-3.3,0.2-4.9,2.3-5.1,6.2l0,0c0,4.3,1.7,6.4,5.1,6.4l0,0c2.4,0,3.8-1.5,4.4-4.3l0,0h2
		c-0.6,3.9-2.9,5.9-6.8,6l0,0c-4.5-0.2-6.8-2.8-6.9-8l0,0c0.2-5.2,2.6-7.9,7.3-8.1l0,0C246.1,93.7,248.3,95.4,248.9,98.6z
		 M256,101.7l-2.4,2.3v5.5h-2.1V94.1h2.1v7.5l7.5-7.5h3l-6.5,6.2l6.7,9.2h-2.8L256,101.7z M268.1,107.6h9.3v1.9H266V94.1h11.2v1.8
		h-9.1v4.8h8.4v1.9h-8.4V107.6z M284,95.8h-5.2V94h12.5v1.8h-5.2v13.7h-2L284,95.8L284,95.8z"/>
</g>
</svg>
