<?xml version="1.0" encoding="utf-8"?>
<!-- Generator: Adobe Illustrator 21.0.0, SVG Export Plug-In . SVG Version: 6.00 Build 0)  -->
<svg version="1.1" id="图层_1" xmlns="http://www.w3.org/2000/svg" xmlns:xlink="http://www.w3.org/1999/xlink" x="0px" y="0px"
	 viewBox="0 0 953.9 546.1" style="enable-background:new 0 0 953.9 546.1;" xml:space="preserve">
<style type="text/css">
	.st0{fill:#D60000;}
	.st1{fill:#FFCC00;}
	.st2{fill:#212347;}
	.st3{fill:#FFFFFF;}
	.st4{fill:#F2F2F2;}
	.st5{fill:#F7B239;}
	.st6{fill:#E09B2D;}
	.st7{fill:#E54728;}
	.st8{fill:#F95428;}
	.st9{fill:#333333;}
	.st10{font-family:'MicrosoftYaHeiLight';}
	.st11{font-size:21px;}
	.st12{fill:#040000;}
	.st13{fill:#060001;}
	.st14{fill:none;stroke:#040000;stroke-miterlimit:10;}
</style>
<path class="st0" d="M859.7,249.1c-25.4,7.1-43.5,26.9-40.5,44.1s26,25.4,51.4,18.2c25.4-7.1,43.5-26.9,40.5-44.1
	C908,250.1,885,242,859.7,249.1 M827.8,283c1.2-4.6,7.2-8.6,13.4-8.9c6.2-0.4,10.2,3.1,9,7.6c-1.2,4.6-7.2,8.6-13.4,8.9
	C830.6,291,826.5,287.6,827.8,283 M862,301.8c-3.1,4.5-10,7.2-15.5,6.1s-7.5-5.6-4.4-10c3.1-4.5,10-7.2,15.5-6.2
	C863.2,292.8,865.1,297.3,862,301.8 M863.4,270.6c-6.3,1.8-11.9-0.3-12.7-4.5c-0.7-4.2,3.7-9.1,10-10.9c6.3-1.8,11.9,0.2,12.7,4.5
	C874.1,263.9,869.6,268.8,863.4,270.6 M891,295.4c-4.6,3.9-11.8,5.1-16.1,2.7s-4-7.5,0.6-11.4s11.9-5.2,16.1-2.8
	C895.9,286.4,895.6,291.5,891,295.4 M894.2,274.6c-5.7,3-12.5,2.6-15.1-0.9s-0.1-8.7,5.6-11.7c5.7-3,12.5-2.6,15.1,0.9
	C902.4,266.3,899.9,271.6,894.2,274.6"/>
<path class="st0" d="M936.1,286.8L936.1,286.8l-1.4-6.6c0,0-24.3,30.4-71.7,39.5s-116.1-12.6-125.2,45.2l2.6,12.1
	c2.9-18.9,9-26.9,14.4-31.1l6.4,29.7c-6.6,5.1-13.8,16.6-15,28.6l1.8,8.4c9.1-57.8,77.8-36.1,125.2-45.2s71.7-39.5,71.7-39.5l-1-4.5
	l0,0L936.1,286.8L936.1,286.8z M797.4,362.6c-10.2,1-19.8,2.9-28.2,6.8l-5.9-28.6c8-5.1,17.8-6,27.9-7.3L797.4,362.6z M849.9,360.7
	c-13.6,0.7-27.9,0.4-41.6,1.1l-6.1-29.1c13.6-0.6,28,0.2,41.8-0.2L849.9,360.7z M900.2,348.7c-8.3,3.8-17.9,7.2-28.5,9.5
	c-3.5,0.7-7.2,1.3-10.9,1.7l-5.9-28.1c3.7-0.4,7.2-0.9,10.7-1.6c10.7-2.2,20.3-5.5,28.8-9.3L900.2,348.7L900.2,348.7z M904.4,316
	c11.2-6,19.7-12.4,25.8-17.4l5.6,26.8c-5.8,5.2-14.2,12-25.5,18.3L904.4,316z"/>
<path class="st1" d="M453.7,322.2c4.2-2.2,9.2-0.7,11.4,3.5c2.1,4.2,0.5,9.3-3.6,11.5l-60,32.1c-4.2,2.2-9.2,0.7-11.4-3.5
	s-0.5-9.3,3.6-11.5L453.7,322.2z M474.3,362.3c4.2-2.2,9.2-0.7,11.4,3.5c2.1,4.2,0.5,9.3-3.6,11.5l-60,32.1
	c-4.2,2.2-9.2,0.7-11.4-3.5c-2.1-4.2-0.5-9.3,3.6-11.5L474.3,362.3z M336.3,397.7c-4.2,2.2-9.2,0.7-11.4-3.5l-18-35.1
	c-7.8-15.2-1.8-34.2,13.3-42.3l145-77.5c15.2-8.1,33.8-2.3,41.7,12.9l18,35.1c2.1,4.2,0.5,9.3-3.6,11.5c-9.6,5.2-13.5,17.2-8.5,26.9
	c5,9.7,16.8,13.3,26.5,8.2c4.2-2.2,9.2-0.7,11.4,3.5l18,35.1c7.8,15.2,1.8,34.2-13.3,42.3l-145,77.5c-15.2,8.1-33.8,2.3-41.7-12.9
	l-18-35.1c-2.1-4.2-0.5-9.3,3.6-11.5c9.6-5.2,13.5-17.2,8.5-26.9C357.9,396.2,346,392.6,336.3,397.7L336.3,397.7z M377.9,397.9
	c7.9,15.4,3.9,34.1-8.7,45.1l14.6,28.5c3.6,6.9,12,9.5,18.9,5.8l145-77.5c6.9-3.7,9.6-12.3,6.1-19.2l-14.6-28.5
	c-16.1,4.3-33.4-3-41.3-18.4c-7.9-15.4-3.9-34.1,8.7-45.1l-14.6-28.5c-3.6-6.9-12-9.5-18.9-5.8l-145,77.5
	c-6.9,3.7-9.6,12.3-6.1,19.2l14.6,28.5C352.6,375.2,370,382.5,377.9,397.9z"/>
<g id="可乐">
	<path class="st2" d="M593.4,476.7c-5.4-0.1-9.8-4-10.2-9l-15.3-243.3c-0.2-2.7,0.9-5.3,2.9-7.3s4.8-3,7.7-3l170.3,2.8
		c3,0,5.6,1.2,7.5,3.3s2.9,4.7,2.6,7.4l-24.7,242.6c-0.5,5-5.1,8.8-10.5,8.7L593.4,476.7z"/>
	<path class="st2" d="M748.6,225.6c0.2,0,0.5,0,0.8,0.3c0.4,0.3,0.3,0.7,0.3,0.8v0.1L725,469.4c0,0.5-0.6,1-1.2,1l-130.3-2.2
		c-0.6,0-1.1-0.5-1.2-1L577.1,224v-0.1c0-0.2,0-0.5,0.3-0.8c0.4-0.3,0.8-0.3,0.8-0.3L748.6,225.6 M748.9,208.4l-170.3-2.9
		c-11.4-0.2-20.6,8.7-19.9,19.4L574,468.1c0.6,9.5,8.9,16.9,19.2,17.1l130.3,2.2c10.1,0.2,18.8-7,19.8-16.4L768,228.4
		C769.1,217.9,760.4,208.6,748.9,208.4z"/>
	<path class="st3" d="M742.5,288.3c0.6,0,1.1,0,1.2-0.2l6.1-62.1c0,0,0-0.1-0.3-0.2c-0.4-0.1-0.7-0.1-0.8-0.1l-170.3-2.8
		c-0.2,0-0.5-0.1-0.9,0s-0.3,0.2-0.3,0.2l3.6,62.2c0,0.1,0.6,0.3,1.2,0.2L742.5,288.3z"/>
	<path class="st0" d="M745.2,455l-172.3-2.9l-7.2-101.3l190.7,3.2L745.2,455z"/>
	<path class="st3" d="M602.6,376l7.1,0.1l-0.5,26.6l15.3-13.1l9.2,0.2L618,402.9l16.4,19.3l-9.2-0.2L613,407l-4,3.4l-0.2,11.3
		l-7.2-0.1L602.6,376z M666.7,394.8c2.6,3.3,3.9,7.9,3.9,13.6l-26.3-0.4c0.2,3.2,1.1,5.7,2.6,7.3c1.6,1.7,3.9,2.6,6.6,2.6
		c2.5,0,4.5-0.5,6.1-1.5c1.1-0.8,2.2-2.2,3.3-4.2l7.1,0.1c-0.9,3.1-2.6,5.6-4.9,7.5c-3.1,2.4-7,3.6-11.6,3.5
		c-5.1-0.1-9.2-1.6-12.1-4.7c-3.1-3.2-4.8-7.5-4.6-12.8c0.1-4.8,1.7-8.8,4.8-12c3-3.2,7.2-4.8,12.2-4.8
		C659.6,389.3,663.8,391.2,666.7,394.8L666.7,394.8z M647.5,396.8c-1.5,1.5-2.5,3.5-3,6.2l18.8,0.3c-0.5-5.7-3.6-8.6-9.3-8.6
		C651.3,394.6,649.1,395.3,647.5,396.8L647.5,396.8z M678.1,377.3l7.1,0.1l-0.9,45.6l-7.1-0.1L678.1,377.3z M721.4,395.8
		c2.6,3.3,3.9,7.9,3.9,13.6L699,409c0.2,3.2,1.1,5.7,2.6,7.3c1.6,1.7,3.9,2.6,6.6,2.6c2.5,0,4.5-0.5,6.1-1.5
		c1.1-0.8,2.2-2.2,3.3-4.2l7.1,0.1c-0.9,3.1-2.6,5.6-4.9,7.5c-3.1,2.4-7,3.6-11.6,3.5c-5.1-0.1-9.2-1.6-12.1-4.7
		c-3.1-3.2-4.8-7.5-4.6-12.8c0.1-4.8,1.7-8.8,4.8-12c3-3.2,7.2-4.8,12.2-4.8C714.3,390.2,718.6,392.1,721.4,395.8z M702.3,397.7
		c-1.5,1.5-2.5,3.5-3,6.2l18.8,0.3c-0.5-5.7-3.6-8.6-9.3-8.6C705.9,395.5,703.8,396.2,702.3,397.7L702.3,397.7z"/>
	<path class="st2" d="M688.7,311.9c-1.7-0.1-3.5-0.5-5.2-1.3c-5.8-2.9-8.2-9.9-5.2-15.4l78.3-148.4c1.5-2.7,4.1-4.8,7.2-5.6
		c3.2-0.8,6.6-0.3,9.3,1.4l54.9,33.3c5.6,3.4,7.4,10.4,4,15.7s-10.6,6.8-16.2,3.5l-43.9-26.7L699.3,306
		C697.2,309.8,693,312,688.7,311.9z"/>
</g>
<g id="爆米花">
	<path class="st4" d="M286.6,205l-18.7,275.3l-45.5,0.6l1.7-91.4c14.9-10,24.6-27,24.3-46.3c-0.2-18.1-9.1-34-22.8-43.8l1.8-93.4
		L286.6,205L286.6,205z M163.7,390.2l3.9,91.4l-45.5,0.6L96.5,207.4l59.3-0.7l4,93.4c-13.4,10.2-21.9,26.4-21.7,44.3
		C138.5,363.7,148.6,380.5,163.7,390.2L163.7,390.2z"/>
	<path class="st5" d="M225.6,299.2c13.6,9.8,22.6,25.7,22.8,43.8c0.2,19.2-9.4,36.3-24.3,46.3c-8.6,5.8-18.9,9.1-30,9.3
		c-11.1,0.2-21.6-3-30.3-8.5c-15.2-9.6-25.2-26.5-25.5-45.7c-0.2-18.1,8.3-34.2,21.7-44.3c9-6.9,20.3-11.1,32.6-11.2
		C205,288.7,216.4,292.5,225.6,299.2z M67.1,151.5c-1.2-3-2-6.3-2.1-9.6c-0.1-14.1,11.1-25.7,25.2-25.8c7-0.2,13.4,2.7,18.2,7.3
		c4.5-13.2,16.9-23,31.7-23.1c10-0.2,19,4.1,25.3,11.1c3.4-9.8,12.8-16.8,23.8-16.9c11.6-0.1,21.5,7.5,24.7,18.1
		c6.1-7.9,15.6-13.2,26.5-13.3c14.8-0.2,27.5,9.2,32.1,22.3c4.6-4.7,10.9-7.7,18-7.7c14.1-0.1,25.7,11.1,25.8,25.2
		c0,3.4-0.5,6.7-1.9,9.8c17.3,1.3,30.9,15.5,31.1,33.1c0.1,8.5-3,16.6-8.5,22.8l-291,3.4c-5.8-6.2-9.1-14.2-9.1-22.6
		C36.8,167.8,50,153.2,67.1,151.5z"/>
	<path class="st6" d="M140.6,150.6c-1.2-3-2-6.3-2.1-9.6c-0.1-14.2,11.1-25.7,25.2-25.8c7-0.2,13.4,2.7,18.2,7.3
		c3.6-10.9,12.6-19.5,24-22.2c-4.5-3.8-10.4-6.1-16.7-6c-11,0.1-20.3,7.2-23.8,16.9c-6.2-6.9-15.3-11.1-25.3-11.1
		c-14.8,0.2-27.2,9.8-31.6,23.2c-4.7-4.6-11.1-7.4-18.2-7.3c-14.2,0.1-25.4,11.7-25.2,25.8c0,3.4,0.7,6.6,2.1,9.6
		C50,153.1,36.7,167.8,37,185.3c0.1,8.5,3.4,16.6,9.1,22.6l73.4-0.9c-5.8-6.2-9.1-14.2-9.1-22.6
		C110.1,166.9,123.4,152.3,140.6,150.6z M238.9,110.3c1.5-4.2,4.1-8,7.5-10.9c-1.9-0.3-4-0.6-6-0.4c-4.8,0.1-9.3,1.1-13.4,3
		C231.4,103.7,235.6,106.6,238.9,110.3L238.9,110.3z"/>
	<path class="st7" d="M96.6,207.4l25.6,274.8l-39.1,0.4L45.8,207.9h0.3L96.6,207.4z"/>
	<path class="st8" d="M224,389.5l-1.7,91.5l-54.6,0.7l-3.9-91.5c8.7,5.5,19.1,8.7,30.3,8.5C205.1,398.7,215.4,395.3,224,389.5z
		 M227.2,205.8l-1.7,93.4c-9.2-6.7-20.7-10.6-32.9-10.5c-12.3,0.2-23.6,4.3-32.6,11.2l-4-93.4L227.2,205.8L227.2,205.8L227.2,205.8z
		 M337.4,204.5L306.8,480l-39.1,0.4L286.5,205l50.6-0.7L337.4,204.5z"/>
	<path class="st3" d="M290.9,419.3c-0.3,0-0.6,0-0.9,0c-4.2-0.5-7.1-4.2-6.7-8.4l17.2-154.6c0.5-4.2,4.2-7.1,8.4-6.7
		c4.2,0.5,7.1,4.2,6.7,8.4l-17.1,154.5C297.9,416.3,294.8,419.1,290.9,419.3L290.9,419.3z"/>
	<path class="st3" d="M303.5,228c0.1,4.2,3.5,7.6,7.7,7.6c4.2-0.1,7.6-3.5,7.6-7.7c-0.1-4.2-3.5-7.6-7.7-7.6
		C306.8,220.4,303.4,223.8,303.5,228z"/>
	<path class="st9" d="M353.3,181.4c-0.3-18.6-12.5-34-29.5-39.1c0.2-1.2,0.1-2.6,0.1-3.8c-0.2-18.3-15.2-33-33.5-32.7
		c-5.4,0.1-10.6,1.4-15.1,3.9c-7.8-11.7-20.9-18.6-35-18.5c-9,0.1-17.5,3-24.4,8.3c-6.3-8.2-16.1-13.2-26.7-13.1
		c-10.2,0.1-19.7,5-25.7,12.8c-6.8-4.5-15-7-23.3-6.9c-14.1,0.1-27,7.5-34.5,19.3c-4.6-2.3-9.9-3.5-15.2-3.6
		c-18.3,0.2-33,15.2-32.7,33.5c0,1.2,0.1,2.5,0.2,3.7c-16.9,5.6-28.8,21.4-28.5,40c0.1,9.3,3.3,18.2,9.2,25.4l37.1,273
		c0.5,3.8,3.9,6.7,7.6,6.6l223.7-2.7c3.8,0,7.1-3,7.4-6.8l30.3-273.6C350.3,199.8,353.4,190.8,353.3,181.4L353.3,181.4z M63.3,160
		c4.1,5.7,11.4,11.7,22.1,11.6c1-0.1,2.3-0.1,3.4-0.2c4-0.6,7.1-3.9,7-7.9c-0.2-4.6-4.3-7.9-8.8-7.3c-8.5,1.2-12.1-6-12.8-7.5
		c0,0,0,0-0.1-0.1l0,0c-0.6-1.5-1-3-1.2-4.6c-1.3-10.1,6.1-19.4,16.2-20.1c5.2-0.5,10.2,1.4,13.9,4.9c1.5,1.4,3.4,2.2,5.4,2.3
		c3.4,0.1,6.3-2.1,7.3-5.2c3.5-10.6,13.3-17.8,24.5-17.9c7.4-0.1,14.5,3,19.6,8.5c1.4,1.4,3.3,2.5,5.4,2.5c3.5,0.2,6.5-1.9,7.5-5
		c2.5-7,9.2-11.8,16.6-11.9c7.8-0.1,14.9,5,17.3,12.4c0.7,2.2,2.1,4,4.2,5c3.3,1.5,7.2,0.5,9.2-2.3c4.8-6.4,12.4-10.2,20.4-10.4
		c9.8-0.2,18.8,5.3,23.4,13.8c-1.4,2.3-2.9,5.3-3.9,9c-2.7,10.5,0.5,20.9,9.2,29.4c1.4,1.4,3.5,2.1,5.4,2.2c1.9,0,3.8-0.8,5.3-2.3
		c3-3.1,2.7-8.1-0.3-11.1c-4.4-4.4-6.1-9-5-13.9c0.2-0.5,0.4-1.1,0.4-1.5c1.4-4.1,4.6-7.5,8.5-9.3c2.7-1.2,5.8-1.8,9-1.4
		c9.1,0.8,16,8.5,16.1,17.6c0,2.3-0.4,4.6-1.2,6.7c-0.6,1.7-0.7,3.6-0.1,5.3c1,3,3.6,4.9,6.6,5.2c13.3,1,23.9,12.2,24.1,25.7
		c0.1,5.4-1.5,10.7-4.7,15.2l-283.6,3.3c-3.2-4.4-5-9.6-5-15.1C44.4,173.3,52.2,163.1,63.3,160L63.3,160z M193.9,391.2
		c-26.1,0.3-47.7-20.7-48-46.8c-0.3-26.1,20.7-47.7,46.8-48c26-0.4,47.7,20.7,48,46.8C241,369.3,219.9,390.8,193.9,391.2z
		 M192.5,281.1c-9.1,0.1-17.7,2.3-25.5,5.7l-3.1-72.7l55.6-0.7l-1.3,72.8C210.3,282.9,201.7,281,192.5,281.1z M148.7,214.4l3.5,82.2
		c-13.3,11.7-21.7,28.9-21.4,48c0.2,20.5,10.3,38.5,25.7,49.8l3.4,79.8l-30.6,0.4l-24.1-259.5L148.7,214.4L148.7,214.4z
		 M171.9,402.6c6.9,2.5,14.4,3.9,22.1,3.8c7.8-0.1,15.2-1.6,22.1-4.3l-1.3,71.3l-39.9,0.4L171.9,402.6L171.9,402.6z M231.6,393.4
		c15-11.6,24.7-30,24.4-50.3c-0.2-19-9-36.1-22.7-47.4l1.4-82.3l43.6-0.5l-17.7,260l-30.6,0.4L231.6,393.4z M54.5,215.5l35.2-0.5
		l24.1,259.5l-24,0.3C89.9,475,54.5,215.5,54.5,215.5z M299.9,472.4l-24,0.3l17.8-260.1l35.2-0.5L299.9,472.4z"/>
	<path class="st9" d="M160.5,189.3c4.2-0.1,7.6-3.5,7.6-7.7s-3.5-7.6-7.7-7.6c-7,0.2-12.8-5.6-12.9-12.5c-0.2-7,5.6-12.8,12.5-12.9
		c4.6-0.1,8.7,2.2,11,6.2c1.3,2,3.3,3.4,5.7,3.6c2.5,0.2,4.7-0.6,6.3-2.3c3.1-3.3,7.4-5.2,12-5.2c9.2-0.2,16.8,7.3,17,16.5
		c0.1,4.2,3.5,7.6,7.7,7.6s7.6-3.5,7.6-7.7c-0.2-17.7-14.8-31.9-32.4-31.6c-5.9,0.1-11.5,1.7-16.3,4.6c-5.2-4.4-11.8-7-18.6-6.8
		c-15.5,0.2-27.9,12.9-27.7,28.4C132.4,177.2,145,189.6,160.5,189.3L160.5,189.3z"/>
</g>
<text transform="matrix(1 0 0 1 491.2413 97.2304)" class="st10 st11">该模块没有数据喔~</text>
<g id="表情">
	<circle class="st1" cx="444.4" cy="86.4" r="35.7"/>
	<ellipse class="st12" cx="430.5" cy="79.6" rx="3.5" ry="5.4"/>
	<ellipse class="st13" cx="457" cy="79.6" rx="3.1" ry="5.4"/>
	<circle class="st13" cx="444.4" cy="101.3" r="4.1"/>
	<circle class="st8" cx="419.8" cy="93.8" r="3.4"/>
	<circle class="st8" cx="470.8" cy="93.8" r="3.4"/>
	<line class="st14" x1="423.2" y1="70" x2="434.3" y2="70"/>
	<line class="st14" x1="451.5" y1="70" x2="462.5" y2="70"/>
</g>
</svg>
