<?xml version="1.0" encoding="utf-8"?>
<!-- Generator: Adobe Illustrator 21.0.0, SVG Export Plug-In . SVG Version: 6.00 Build 0)  -->
<svg version="1.1" id="图层_1" xmlns="http://www.w3.org/2000/svg" xmlns:xlink="http://www.w3.org/1999/xlink" x="0px" y="0px"
	 viewBox="0 0 953.9 416.7" style="enable-background:new 0 0 953.9 416.7;" xml:space="preserve">
<style type="text/css">
	.st0{fill:#212347;}
	.st1{fill:#FFFFFF;}
	.st2{fill:#D60000;}
	.st3{fill:#F2F2F2;}
	.st4{fill:#F7B239;}
	.st5{fill:#E09B2D;}
	.st6{fill:#E54728;}
	.st7{fill:#F95428;}
	.st8{fill:#333333;}
	.st9{font-family:'MicrosoftYaHeiLight';}
	.st10{font-size:21px;}
	.st11{fill:#FFCC00;}
	.st12{fill:#040000;}
	.st13{fill:#060001;}
	.st14{fill:none;stroke:#040000;stroke-miterlimit:10;}
</style>
<g id="可乐">
	<path class="st0" d="M337.5,371.6c-5.4-0.1-9.8-4-10.2-9L312,119.3c-0.2-2.7,0.9-5.3,2.9-7.3s4.8-3,7.7-3l170.3,2.8
		c3,0,5.6,1.2,7.5,3.3s2.9,4.7,2.6,7.4l-24.7,242.6c-0.5,5-5.1,8.8-10.5,8.7L337.5,371.6z"/>
	<path class="st0" d="M492.7,120.5c0.2,0,0.5,0,0.8,0.3c0.4,0.3,0.3,0.7,0.3,0.8v0.1l-24.7,242.6c0,0.5-0.6,1-1.2,1l-130.3-2.2
		c-0.6,0-1.1-0.5-1.2-1l-15.2-243.2v-0.1c0-0.2,0-0.5,0.3-0.8c0.4-0.3,0.8-0.3,0.8-0.3L492.7,120.5 M493,103.3l-170.3-2.9
		c-11.4-0.2-20.6,8.7-19.9,19.4L318.1,363c0.6,9.5,8.9,16.9,19.2,17.1l130.3,2.2c10.1,0.2,18.8-7,19.8-16.4l24.7-242.6
		C513.2,112.8,504.5,103.5,493,103.3z"/>
	<path class="st1" d="M486.6,183.2c0.6,0,1.1,0,1.2-0.2l6.1-62.1c0,0,0-0.1-0.3-0.2c-0.4-0.1-0.7-0.1-0.8-0.1l-170.3-2.8
		c-0.2,0-0.5-0.1-0.9,0s-0.3,0.2-0.3,0.2l3.6,62.2c0,0.1,0.6,0.3,1.2,0.2L486.6,183.2z"/>
	<path class="st2" d="M489.3,349.9L317,347l-7.2-101.3l190.7,3.2L489.3,349.9z"/>
	<path class="st1" d="M346.7,270.9l7.1,0.1l-0.5,26.6l15.3-13.1l9.2,0.2l-15.7,13.1l16.4,19.3l-9.2-0.2l-12.2-15l-4,3.4l-0.2,11.3
		l-7.2-0.1L346.7,270.9z M410.8,289.7c2.6,3.3,3.9,7.9,3.9,13.6l-26.3-0.4c0.2,3.2,1.1,5.7,2.6,7.3c1.6,1.7,3.9,2.6,6.6,2.6
		c2.5,0,4.5-0.5,6.1-1.5c1.1-0.8,2.2-2.2,3.3-4.2l7.1,0.1c-0.9,3.1-2.6,5.6-4.9,7.5c-3.1,2.4-7,3.6-11.6,3.5
		c-5.1-0.1-9.2-1.6-12.1-4.7c-3.1-3.2-4.8-7.5-4.6-12.8c0.1-4.8,1.7-8.8,4.8-12c3-3.2,7.2-4.8,12.2-4.8
		C403.7,284.2,407.9,286.1,410.8,289.7L410.8,289.7z M391.6,291.7c-1.5,1.5-2.5,3.5-3,6.2l18.8,0.3c-0.5-5.7-3.6-8.6-9.3-8.6
		C395.4,289.5,393.2,290.2,391.6,291.7L391.6,291.7z M422.2,272.2l7.1,0.1l-0.9,45.6l-7.1-0.1L422.2,272.2z M465.5,290.7
		c2.6,3.3,3.9,7.9,3.9,13.6l-26.3-0.4c0.2,3.2,1.1,5.7,2.6,7.3c1.6,1.7,3.9,2.6,6.6,2.6c2.5,0,4.5-0.5,6.1-1.5
		c1.1-0.8,2.2-2.2,3.3-4.2l7.1,0.1c-0.9,3.1-2.6,5.6-4.9,7.5c-3.1,2.4-7,3.6-11.6,3.5c-5.1-0.1-9.2-1.6-12.1-4.7
		c-3.1-3.2-4.8-7.5-4.6-12.8c0.1-4.8,1.7-8.8,4.8-12c3-3.2,7.2-4.8,12.2-4.8C458.4,285.1,462.7,287,465.5,290.7z M446.4,292.6
		c-1.5,1.5-2.5,3.5-3,6.2l18.8,0.3c-0.5-5.7-3.6-8.6-9.3-8.6C450,290.4,447.9,291.1,446.4,292.6L446.4,292.6z"/>
	<path class="st0" d="M432.8,206.8c-1.7-0.1-3.5-0.5-5.2-1.3c-5.8-2.9-8.2-9.9-5.2-15.4l78.3-148.4c1.5-2.7,4.1-4.8,7.2-5.6
		c3.2-0.8,6.6-0.3,9.3,1.4l54.9,33.3c5.6,3.4,7.4,10.4,4,15.7s-10.6,6.8-16.2,3.5L516,63.3l-72.6,137.6
		C441.3,204.7,437.1,206.9,432.8,206.8z"/>
</g>
<g id="爆米花">
	<path class="st3" d="M275,125l-18.7,275.3l-45.5,0.6l1.7-91.4c14.9-10,24.6-27,24.3-46.3c-0.2-18.1-9.1-34-22.8-43.8l1.8-93.4
		L275,125L275,125z M152.1,310.2l3.9,91.4l-45.5,0.6L84.9,127.4l59.3-0.7l4,93.4c-13.4,10.2-21.9,26.4-21.7,44.3
		C126.9,283.7,137,300.5,152.1,310.2L152.1,310.2z"/>
	<path class="st4" d="M214,219.2c13.6,9.8,22.6,25.7,22.8,43.8c0.2,19.2-9.4,36.3-24.3,46.3c-8.6,5.8-18.9,9.1-30,9.3
		c-11.1,0.2-21.6-3-30.3-8.5c-15.2-9.6-25.2-26.5-25.5-45.7c-0.2-18.1,8.3-34.2,21.7-44.3c9-6.9,20.3-11.1,32.6-11.2
		C193.4,208.7,204.8,212.5,214,219.2z M55.5,71.5c-1.2-3-2-6.3-2.1-9.6c-0.1-14.1,11.1-25.7,25.2-25.8c7-0.2,13.4,2.7,18.2,7.3
		c4.5-13.2,16.9-23,31.7-23.1c10-0.2,19,4.1,25.3,11.1c3.4-9.8,12.8-16.8,23.8-16.9c11.6-0.1,21.5,7.5,24.7,18.1
		c6.1-7.9,15.6-13.2,26.5-13.3c14.8-0.2,27.5,9.2,32.1,22.3c4.6-4.7,10.9-7.7,18-7.7c14.1-0.1,25.7,11.1,25.8,25.2
		c0,3.4-0.5,6.7-1.9,9.8c17.3,1.3,30.9,15.5,31.1,33.1c0.1,8.5-3,16.6-8.5,22.8l-291,3.4c-5.8-6.2-9.1-14.2-9.1-22.6
		C25.2,87.8,38.4,73.2,55.5,71.5z"/>
	<path class="st5" d="M129,70.6c-1.2-3-2-6.3-2.1-9.6c-0.1-14.2,11.1-25.7,25.2-25.8c7-0.2,13.4,2.7,18.2,7.3
		c3.6-10.9,12.6-19.5,24-22.2c-4.5-3.8-10.4-6.1-16.7-6c-11,0.1-20.3,7.2-23.8,16.9c-6.2-6.9-15.3-11.1-25.3-11.1
		c-14.8,0.2-27.2,9.8-31.6,23.2c-4.7-4.6-11.1-7.4-18.2-7.3c-14.2,0.1-25.4,11.7-25.2,25.8c0,3.4,0.7,6.6,2.1,9.6
		c-17.2,1.7-30.5,16.4-30.2,33.9c0.1,8.5,3.4,16.6,9.1,22.6l73.4-0.9c-5.8-6.2-9.1-14.2-9.1-22.6C98.5,86.9,111.8,72.3,129,70.6z
		 M227.3,30.3c1.5-4.2,4.1-8,7.5-10.9c-1.9-0.3-4-0.6-6-0.4c-4.8,0.1-9.3,1.1-13.4,3C219.8,23.7,224,26.6,227.3,30.3L227.3,30.3z"/>
	<path class="st6" d="M85,127.4l25.6,274.8l-39.1,0.4L34.2,127.9h0.3L85,127.4z"/>
	<path class="st7" d="M212.4,309.5l-1.7,91.5l-54.6,0.7l-3.9-91.5c8.7,5.5,19.1,8.7,30.3,8.5C193.5,318.7,203.8,315.3,212.4,309.5z
		 M215.6,125.8l-1.7,93.4c-9.2-6.7-20.7-10.6-32.9-10.5c-12.3,0.2-23.6,4.3-32.6,11.2l-4-93.4L215.6,125.8L215.6,125.8L215.6,125.8z
		 M325.8,124.5L295.2,400l-39.1,0.4L274.9,125l50.6-0.7L325.8,124.5z"/>
	<path class="st1" d="M279.3,339.3c-0.3,0-0.6,0-0.9,0c-4.2-0.5-7.1-4.2-6.7-8.4l17.2-154.6c0.5-4.2,4.2-7.1,8.4-6.7
		c4.2,0.5,7.1,4.2,6.7,8.4l-17.1,154.5C286.3,336.3,283.2,339.1,279.3,339.3L279.3,339.3z"/>
	<path class="st1" d="M291.9,148c0.1,4.2,3.5,7.6,7.7,7.6c4.2-0.1,7.6-3.5,7.6-7.7c-0.1-4.2-3.5-7.6-7.7-7.6
		C295.2,140.4,291.8,143.8,291.9,148z"/>
	<path class="st8" d="M341.7,101.4c-0.3-18.6-12.5-34-29.5-39.1c0.2-1.2,0.1-2.6,0.1-3.8c-0.2-18.3-15.2-33-33.5-32.7
		c-5.4,0.1-10.6,1.4-15.1,3.9c-7.8-11.7-20.9-18.6-35-18.5c-9,0.1-17.5,3-24.4,8.3c-6.3-8.2-16.1-13.2-26.7-13.1
		c-10.2,0.1-19.7,5-25.7,12.8c-6.8-4.5-15-7-23.3-6.9c-14.1,0.1-27,7.5-34.5,19.3c-4.6-2.3-9.9-3.5-15.2-3.6
		c-18.3,0.2-33,15.2-32.7,33.5c0,1.2,0.1,2.5,0.2,3.7c-16.9,5.6-28.8,21.4-28.5,40c0.1,9.3,3.3,18.2,9.2,25.4l37.1,273
		c0.5,3.8,3.9,6.7,7.6,6.6l223.7-2.7c3.8,0,7.1-3,7.4-6.8l30.3-273.6C338.7,119.8,341.8,110.8,341.7,101.4L341.7,101.4z M51.7,80
		c4.1,5.7,11.4,11.7,22.1,11.6c1-0.1,2.3-0.1,3.4-0.2c4-0.6,7.1-3.9,7-7.9c-0.2-4.6-4.3-7.9-8.8-7.3c-8.5,1.2-12.1-6-12.8-7.5
		c0,0,0,0-0.1-0.1l0,0c-0.6-1.5-1-3-1.2-4.6C60,53.9,67.4,44.6,77.5,43.9c5.2-0.5,10.2,1.4,13.9,4.9c1.5,1.4,3.4,2.2,5.4,2.3
		c3.4,0.1,6.3-2.1,7.3-5.2c3.5-10.6,13.3-17.8,24.5-17.9c7.4-0.1,14.5,3,19.6,8.5c1.4,1.4,3.3,2.5,5.4,2.5c3.5,0.2,6.5-1.9,7.5-5
		c2.5-7,9.2-11.8,16.6-11.9c7.8-0.1,14.9,5,17.3,12.4c0.7,2.2,2.1,4,4.2,5c3.3,1.5,7.2,0.5,9.2-2.3c4.8-6.4,12.4-10.2,20.4-10.4
		c9.8-0.2,18.8,5.3,23.4,13.8c-1.4,2.3-2.9,5.3-3.9,9c-2.7,10.5,0.5,20.9,9.2,29.4c1.4,1.4,3.5,2.1,5.4,2.2c1.9,0,3.8-0.8,5.3-2.3
		c3-3.1,2.7-8.1-0.3-11.1c-4.4-4.4-6.1-9-5-13.9c0.2-0.5,0.4-1.1,0.4-1.5c1.4-4.1,4.6-7.5,8.5-9.3c2.7-1.2,5.8-1.8,9-1.4
		c9.1,0.8,16,8.5,16.1,17.6c0,2.3-0.4,4.6-1.2,6.7c-0.6,1.7-0.7,3.6-0.1,5.3c1,3,3.6,4.9,6.6,5.2c13.3,1,23.9,12.2,24.1,25.7
		c0.1,5.4-1.5,10.7-4.7,15.2L38,120.7c-3.2-4.4-5-9.6-5-15.1C32.8,93.3,40.6,83.1,51.7,80L51.7,80z M182.3,311.2
		c-26.1,0.3-47.7-20.7-48-46.8s20.7-47.7,46.8-48c26-0.4,47.7,20.7,48,46.8S208.3,310.8,182.3,311.2z M180.9,201.1
		c-9.1,0.1-17.7,2.3-25.5,5.7l-3.1-72.7l55.6-0.7l-1.3,72.8C198.7,202.9,190.1,201,180.9,201.1z M137.1,134.4l3.5,82.2
		c-13.3,11.7-21.7,28.9-21.4,48c0.2,20.5,10.3,38.5,25.7,49.8l3.4,79.8l-30.6,0.4L93.6,135.1L137.1,134.4L137.1,134.4z M160.3,322.6
		c6.9,2.5,14.4,3.9,22.1,3.8c7.8-0.1,15.2-1.6,22.1-4.3l-1.3,71.3l-39.9,0.4L160.3,322.6L160.3,322.6z M220,313.4
		c15-11.6,24.7-30,24.4-50.3c-0.2-19-9-36.1-22.7-47.4l1.4-82.3l43.6-0.5l-17.7,260l-30.6,0.4L220,313.4z M42.9,135.5l35.2-0.5
		l24.1,259.5l-24,0.3C78.3,395,42.9,135.5,42.9,135.5z M288.3,392.4l-24,0.3l17.8-260.1l35.2-0.5L288.3,392.4z"/>
	<path class="st8" d="M148.9,109.3c4.2-0.1,7.6-3.5,7.6-7.7S153,94,148.8,94c-7,0.2-12.8-5.6-12.9-12.5c-0.2-7,5.6-12.8,12.5-12.9
		c4.6-0.1,8.7,2.2,11,6.2c1.3,2,3.3,3.4,5.7,3.6c2.5,0.2,4.7-0.6,6.3-2.3c3.1-3.3,7.4-5.2,12-5.2c9.2-0.2,16.8,7.3,17,16.5
		c0.1,4.2,3.5,7.6,7.7,7.6s7.6-3.5,7.6-7.7c-0.2-17.7-14.8-31.9-32.4-31.6c-5.9,0.1-11.5,1.7-16.3,4.6c-5.2-4.4-11.8-7-18.6-6.8
		c-15.5,0.2-27.9,12.9-27.7,28.4C120.8,97.2,133.4,109.6,148.9,109.3L148.9,109.3z"/>
</g>
<text transform="matrix(1 0 0 1 696.731 194.0041)" class="st9 st10">该日期没有场次信息哦~</text>
<g id="表情">
	<circle class="st11" cx="649.9" cy="183.2" r="35.7"/>
	<ellipse class="st12" cx="636" cy="176.4" rx="3.5" ry="5.4"/>
	<ellipse class="st13" cx="662.5" cy="176.4" rx="3.1" ry="5.4"/>
	<circle class="st13" cx="649.9" cy="198.1" r="4.1"/>
	<circle class="st7" cx="625.3" cy="190.6" r="3.4"/>
	<circle class="st7" cx="676.3" cy="190.6" r="3.4"/>
	<line class="st14" x1="628.7" y1="166.8" x2="639.8" y2="166.8"/>
	<line class="st14" x1="657" y1="166.8" x2="668" y2="166.8"/>
</g>
</svg>
