<?xml version="1.0" encoding="utf-8"?>
<!-- Generator: Adobe Illustrator 21.0.0, SVG Export Plug-In . SVG Version: 6.00 Build 0)  -->
<svg version="1.1" id="图层_1" xmlns="http://www.w3.org/2000/svg" xmlns:xlink="http://www.w3.org/1999/xlink" x="0px" y="0px"
	 viewBox="0 0 1024 1024" style="enable-background:new 0 0 1024 1024;" xml:space="preserve">
<style type="text/css">
	.st0{fill:#BFBFBF;}
</style>
<path class="st0" d="M921.8,928.4H819.4v18.1c0,30-23,54.3-51.2,54.3c-28.3,0-51.2-24.3-51.2-54.3v-18.1H307.3v18.1
	c0,30-23,54.3-51.2,54.3c-28.3,0-51.2-24.3-51.2-54.3v-18.1H102.4C64.7,928.4,0,859.8,0,819.8V421.6c0-39.9,30.5-72.4,68.2-72.4
	h68.3c37.7,0,68.2,32.4,68.2,72.4v289.7h614.5V421.6c0-39.9,30.5-72.4,68.2-72.4h68.3c37.7,0,68.2,32.4,68.2,72.4v398.3
	C1024.2,859.8,959.5,928.4,921.8,928.4L921.8,928.4z M853.5,276.7c-56.6,0-102.4,48.7-102.4,108.7v253.4H273.1V385.4
	c0-60-45.8-108.7-102.4-108.7c-12,0-23.5-4.1-34.2,0V132c0-60,45.9-108.7,102.5-108.7h546.3c56.6,0,102.4,48.7,102.4,108.7v144.9
	C876.9,272.6,865.6,276.7,853.5,276.7L853.5,276.7z"/>
</svg>
