<svg class="icon" style="width: 1.0234375em; height: 1em;vertical-align: middle;fill: currentColor;overflow: hidden;" viewBox="0 0 1048 1024" version="1.1" xmlns="http://www.w3.org/2000/svg" p-id="1514"><path d="M511.592546 39.341587c191.211572-0.499573 363.938941 114.527114 437.126388 291.251068C1022.031274 507.191716 981.440967 710.642826 845.931786 845.652434c-184.342443 184.342443-483.211999 184.342443-667.554441 0C-5.965098 661.309991-5.965098 362.440435 178.377345 178.097992 266.551982 89.173996 386.449506 39.216694 511.592546 39.341587m0-39.341375C267.800915 0.000212 57.855355 172.228009 10.146132 411.39859c-47.709223 239.170581 80.181469 478.715842 305.488899 572.135996 225.30743 93.420154 485.210291 14.862297 620.844364-187.714561 135.634074-202.576858 109.40649-472.845859-62.821306-645.573228C777.864963 53.954098 647.476406-0.124681 511.592546 0.000212z m0 0" fill="#8a8a8a" p-id="1515"></path><path d="M511.592546 108.15777c192.335611 0.124893 357.819172 136.008753 395.287148 324.597567 37.467976 188.588813-63.570666 377.427413-241.293766 450.989539-177.7231 73.562126-382.67293 11.240393-489.456662-148.622972S90.452494 362.190648 226.461248 226.181895c75.435525-75.810205 178.222673-118.398805 285.131298-118.024125m0-9.866567c-197.081554 0-366.5617 139.255978-405.028822 332.465842-38.467122 193.209864 65.069385 386.669514 247.038856 462.105039 182.094364 75.435525 391.91503 11.739966 501.446414-152.119984 109.40649-163.859949 87.924851-382.173357-51.331127-521.429334-77.433817-77.558711-182.469044-121.146456-292.125321-121.021563z m0 0" fill="#8a8a8a" p-id="1516"></path><path d="M726.408942 331.841588l-8.242954-25.852904-25.977797-7.868275c-0.624466-0.249787-0.999146-0.74936-1.124039-1.373826-0.124893-0.624466 0.124893-1.248933 0.499573-1.748505l21.981212-15.861443-0.624466-27.101837c0-0.74936 0.37468-1.498719 0.999146-1.873398 0.624466-0.37468 1.498719-0.249787 2.123185 0.124893l21.606533 15.73655 25.603117-8.992314c0.74936-0.249787 1.498719-0.124893 1.998292 0.374679 0.499573 0.499573 0.74936 1.373826 0.499573 1.998292l-8.492741 25.603117 16.361016 21.606533c0.499573 0.624466 0.499573 1.373826 0.124894 2.123186-0.37468 0.624466-0.999146 1.124039-1.748506 1.124039h-26.976943l-15.486763 22.480786c-0.37468 0.624466-1.124039 0.999146-1.873399 0.874252-0.37468 0-0.999146-0.624466-1.248933-1.373825z m-85.177199-68.31661l-17.485055-20.73228-27.101836 2.997438c-0.74936 0.124893-1.498719-0.249787-1.873399-0.874253-0.37468-0.624466-0.37468-1.373826 0-1.998292l14.237831-23.105252-10.865713-24.853758c-0.249787-0.624466-0.124893-1.498719 0.37468-1.998292 0.499573-0.499573 1.248933-0.74936 1.998292-0.624466l26.352476 6.494449 20.232707-18.109521c0.499573-0.499573 1.373826-0.624466 1.998292-0.37468s1.124039 0.874253 1.248933 1.623612l1.998292 27.101836 23.355038 13.613365c0.624466 0.37468 1.124039 0.999146 1.12404 1.748505 0 0.74936-0.37468 1.498719-1.12404 1.748506l-25.103544 9.866567-5.745089 26.602263c-0.124893 0.74936-0.624466 1.498719-1.373826 1.748506-0.874253 0.124893-1.748506-0.249787-2.248079-0.874253z m-104.78544-30.473954l-24.104397-12.364432-23.854612 12.739112c-0.624466 0.37468-1.498719 0.249787-2.123185-0.124894-0.624466-0.499573-0.874253-1.124039-0.74936-1.873398l4.371264-26.727157-19.608241-18.733988c-0.499573-0.499573-0.74936-1.248933-0.499573-1.998292 0.249787-0.74936 0.874253-1.248933 1.623613-1.373826l26.852049-4.121477 11.739966-24.479078c0.37468-0.624466 0.999146-1.124039 1.748505-1.124039 0.74936 0 1.498719 0.37468 1.748506 1.124039l12.239539 24.229291 26.852049 3.621905c0.74936 0.124893 1.373826 0.624466 1.623613 1.373826 0.249787 0.74936 0 1.498719-0.499573 1.998292l-19.608241 19.108667 4.870837 26.727157c0 0.624466-0.249787 1.248933-0.624466 1.623612-0.74936 0.37468-1.373826 0.499573-1.998293 0.37468zM233.330377 487.458582l-12.489326 23.854611 12.739112 23.854612c0.37468 0.624466 0.249787 1.498719-0.124893 2.123185-0.499573 0.624466-1.124039 0.874253-1.873399 0.74936l-26.727156-4.371264-18.733988 19.608241c-0.499573 0.499573-1.248933 0.74936-1.998292 0.499573-0.74936-0.249787-1.248933-0.874253-1.373826-1.623613l-4.121478-26.852049-24.479077-11.739966c-0.624466-0.37468-1.124039-0.999146-1.12404-1.748506 0-0.74936 0.37468-1.498719 1.12404-1.748505l24.229291-12.239539 3.621904-26.85205c0.124893-0.74936 0.624466-1.373826 1.373826-1.623612 0.74936-0.249787 1.498719 0 1.998292 0.499573l19.108668 19.608241 26.727156-4.870837c0.624466-0.124893 1.373826 0.124893 1.748506 0.624466 0.499573 0.874253 0.624466 1.623612 0.37468 2.248079z m11.989752 108.532237l-2.248079 27.101836 20.982067 17.235269c0.624466 0.499573 0.874253 1.248933 0.624466 1.998292-0.124893 0.74936-0.74936 1.248933-1.498719 1.49872l-26.976943 6.244662-9.866567 25.228437c-0.37468 0.624466-0.999146 1.124039-1.748505 1.12404-0.74936 0-1.498719-0.37468-1.748506-1.12404L208.851299 651.942997l-27.101836-1.623612c-0.74936 0-1.373826-0.499573-1.748506-1.248933-0.249787-0.74936-0.124893-1.498719 0.37468-1.998292l17.734842-20.607387-6.869129-26.227583c-0.249787-0.74936 0-1.498719 0.624466-1.998292 0.624466-0.499573 1.373826-0.624466 2.123186-0.37468l25.103544 10.491033 22.855465-14.61251c0.624466-0.999146 1.873399-1.248933 2.872545-0.624467 0.74936 0.624466 0.999146 1.873399 0.499573 2.872545z m52.455167 95.793126l8.242954 26.10269 25.977797 7.868275c0.74936 0.249787 1.248933 0.874253 1.373826 1.498719 0.124893 0.74936-0.124893 1.498719-0.74936 1.873399l-21.981212 15.861443 0.624466 27.101836c0 0.74936-0.37468 1.498719-0.999146 1.873399-0.624466 0.37468-1.498719 0.249787-2.123185-0.124893L286.285116 757.22801l-25.72801 8.992314c-0.74936 0.249787-1.498719 0.124893-1.998292-0.37468-0.499573-0.499573-0.74936-1.248933-0.499573-1.998292l8.492741-25.72801-16.361016-21.606533c-0.499573-0.624466-0.499573-1.373826-0.249787-1.998292 0.37468-0.624466 0.999146-1.124039 1.748506-1.124039H278.791521l15.486763-22.355893c0.499573-0.624466 1.373826-0.999146 2.123186-0.749359 0.74936 0 1.248933 0.624466 1.373826 1.498719z m85.177199 68.31661l17.609948 20.607387 27.101836-2.622759c0.74936-0.124893 1.498719 0.249787 1.873399 0.874253 0.37468 0.624466 0.37468 1.373826 0 1.998292l-14.237831 23.105252 10.865713 24.853758c0.249787 0.624466 0.124893 1.498719-0.374679 1.998292-0.499573 0.499573-1.248933 0.74936-1.998292 0.624466l-26.352477-6.494449-20.232707 18.109522c-0.499573 0.499573-1.373826 0.624466-1.998292 0.374679s-1.124039-0.874253-1.248933-1.623612l-1.998292-26.976943-23.604825-13.738258c-0.624466-0.37468-1.124039-0.999146-1.124039-1.748505 0-0.74936 0.37468-1.498719 1.124039-1.748506l25.103544-9.866567 5.74509-26.602263c-0.124893-0.874253 0.499573-1.748506 1.373826-1.998292 0.874253-0.249787 1.873399 0.124893 2.372972 0.874253z m104.78544 30.473954l23.854611 12.364432 23.854611-12.739112c0.624466-0.37468 1.498719-0.249787 2.123186 0.124893 0.624466 0.499573 0.874253 1.124039 0.749359 1.873399l-4.371264 26.727156 19.608241 18.733988c0.499573 0.499573 0.74936 1.248933 0.499573 1.998292-0.249787 0.74936-0.874253 1.248933-1.623612 1.373826l-26.602263 4.496157-11.739966 24.479078c-0.37468 0.624466-0.999146 1.124039-1.748505 1.124039-0.74936 0-1.498719-0.37468-1.748506-1.124039l-12.239539-24.479078-26.852049-3.621904c-0.74936-0.124893-1.373826-0.624466-1.623613-1.373826-0.249787-0.74936 0-1.498719 0.499573-1.998292l19.608241-19.108668-4.870837-26.727156c-0.124893-0.624466 0.124893-1.248933 0.624466-1.748506 0.74936-0.249787 1.373826-0.499573 1.998293-0.374679zM790.853861 536.166951l12.364433-24.104398-12.739112-23.854612c-0.37468-0.624466-0.249787-1.498719 0.124893-2.123185 0.37468-0.624466 1.124039-0.874253 1.873399-0.74936l26.727156 4.371264 18.733988-19.60824c0.499573-0.499573 1.248933-0.74936 1.998292-0.499573 0.74936 0.249787 1.248933 0.874253 1.373826 1.623612l4.496157 26.852049 24.479078 11.739966c0.624466 0.37468 1.124039 0.999146 1.124039 1.748506 0 0.74936-0.37468 1.498719-1.124039 1.748505l-24.479078 12.239539-3.621904 26.85205c-0.124893 0.74936-0.624466 1.373826-1.373826 1.623612-0.74936 0.249787-1.498719 0-1.998292-0.499573l-19.108668-19.733134-26.727156 4.870837c-0.624466 0.124893-1.248933-0.124893-1.748506-0.624466-0.249787-0.624466-0.499573-1.248933-0.37468-1.873399z m-11.864859-108.657131l2.248079-27.101836-20.982067-16.860589c-0.624466-0.499573-0.874253-1.248933-0.624466-1.998292 0.124893-0.74936 0.74936-1.248933 1.498719-1.498719l25.977797-6.369556 9.866567-25.228438c0.37468-0.624466 0.999146-1.124039 1.748505-1.124039 0.74936 0 1.498719 0.37468 1.748506 1.124039l14.112938 23.230146 27.101836 1.623612c0.74936 0 1.373826 0.499573 1.748505 1.248932 0.249787 0.74936 0.124893 1.498719-0.37468 1.998292l-17.734842 20.607387 6.869129 26.227584c0.249787 0.74936 0 1.498719-0.624466 1.998292-0.624466 0.499573-1.373826 0.624466-2.123185 0.374679l-25.103544-10.491033-22.355893 14.362724c-0.624466 0.37468-1.498719 0.499573-2.123185 0-0.624466-0.624466-0.999146-1.373826-0.874253-2.123185z m-299.743809-129.389411c68.066823-10.491033 137.007899 12.114646 185.716269 60.823015 48.708369 48.708369 71.314048 117.649445 60.823014 185.716268l8.617635 8.617635c13.738258-73.31234-9.616781-148.747865-62.321734-201.577712-52.829846-52.829846-128.140478-76.059992-201.577712-62.321734l8.742528 8.742528z m65.818745 427.384714c-68.066823 10.491033-137.007899-12.114646-185.716268-60.823014-48.708369-48.708369-71.314048-117.649445-60.823015-185.716268l-8.617634-8.617635c-13.738258 73.31234 9.616781 148.747865 62.321733 201.452818 52.704953 52.829846 128.140478 76.184885 201.452819 62.446627l-8.617635-8.742528z m0 0" fill="#8a8a8a" p-id="1517"></path><path d="M434.908088 428.009393l-77.059137-77.059138-34.470538 34.470538c-4.62105 4.62105-4.745944 9.242101-0.124894 13.863152l62.696414 62.696413c2.123185 2.123185 4.870837 3.372118 8.118061 3.621904 3.746798 0.124893 12.489325-6.119769 26.352477-18.609094l7.868275 15.36187c-17.110376 14.112938-28.475662 21.48164-34.095859 21.856319-5.74509-0.249787-11.240393-2.747652-16.485909-7.493595l-69.315756-69.315756c-10.36614-10.36614-10.116354-20.857173 0.74936-31.722886l65.069385-65.069386 11.989752 11.989753-16.985482 16.985482 65.069385 65.069386 29.724594-29.724595-82.804227-82.92912 11.365286-11.365286 94.79398 94.793979-52.455167 52.58006zM546.562657 437.126601c-7.118915 3.497011-13.738258 6.244663-19.608241 8.367848l21.48164 21.481639 20.982066-20.982066 11.989753 11.989752-20.982067 20.982067 40.840094 40.840094-11.615072 11.615072-40.840094-40.840094-5.994877 5.994876c-5.74509 5.245517-11.490179 9.99146-17.235269 14.237831l50.456875 50.456875-11.490179 11.490179-44.711785-44.711785c-10.491033 22.480786-7.993168 50.956448 7.493595 85.177199l-16.860589 3.871691c-14.737404-37.093296-16.11123-68.566396-4.121478-94.544193-9.117208 4.496157-18.359308 7.618488-27.726302 9.242101-20.232707 2.872545-43.213066-2.248079-68.941076-15.486764l3.621904-16.361016c26.10269 12.864005 47.709223 17.734842 64.569812 14.862297 7.118915-1.623612 14.237831-4.246371 21.10696-7.618488l-44.461998-44.461998 11.490179-11.49018 47.334544 47.334543c6.244663-4.371264 12.114646-9.117208 17.485055-13.988044l5.994876-5.994876-27.601409-27.601409c-10.990606 2.622758-21.48164 3.871691-31.597993 3.621904l-1.373826-18.858881c20.857173 1.373826 42.089027-3.372118 63.69556-14.237831l6.619342 15.611657zM603.763767 595.491246c1.124039 9.366994 1.748506 17.609949 1.998292 24.479078 8.242955-2.747652 15.986336-6.119769 23.230146-9.99146l5.994876 14.737404c-10.241247 5.620196-19.858027 9.866567-28.725449 12.739112 0.124893 9.616781-0.124893 19.108668-0.749359 28.725448l-17.734842 0.999146c0.874253-9.366994 1.248933-17.734842 1.373826-25.353331-18.733988 3.621904-36.968403 2.872545-54.828139-2.123185l3.372118-17.859735c16.735696 4.870837 33.970965 5.74509 51.580914 2.622758-0.37468-11.490179-0.874253-20.857173-1.498719-27.976089l15.986336-0.999146z m54.078779 45.086465c-5.495303 1.623612-10.865713 2.872545-16.236123 3.746798l1.748506-16.735696c22.230999-4.870837 46.210504-17.235269 71.938514-36.968404l9.741674 13.738258c-7.618488 5.37041-14.612511 10.241247-21.10696 14.362725l33.596285 33.596285-11.490179 11.490179-9.616781-9.61678c-20.107814 18.234415-40.840094 30.473954-62.321733 36.593723-3.996584 17.360162-4.121477 33.721179-0.249787 49.207942l-17.485056 3.247225c-3.122331-15.486763-2.872545-31.84778 0.874253-49.083049-18.109522 2.372972-36.46883 0.999146-55.327711-4.371264l4.121477-17.609949c19.358454 6.369556 38.092442 7.993168 55.952178 4.745944 3.996584-12.239539 9.242101-24.354184 15.861443-36.343937z m-20.482493-61.947054c-16.860589 6.119769-33.096712 9.866567-48.708369 11.240393l-2.747652-16.48591c15.112084-0.74936 30.473954-4.121477 46.210504-9.99146l5.245517 15.236977z m38.092442-28.350769c-2.372972 5.994876-4.99573 11.989752-7.868275 18.109522l22.980359 22.980359-11.365286 11.365286-58.574936-58.574936 11.365286-11.365286 23.979504 23.979505c2.123185-5.245517 3.746798-10.865713 5.120624-16.86059l14.362724 10.36614zM640.607277 620.844577c1.373826-11.864859 1.998292-23.479932 1.748506-34.720325l14.362724 0.124894c0.874253 8.867421 0.74936 20.3576-0.499573 34.470538l-15.611657 0.124893z m48.833262 6.369556l-9.99146 4.99573c-8.367848 13.488471-14.98719 26.727156-19.858027 39.840948 16.11123-5.994876 31.4731-15.611657 45.835824-28.850342l-15.986337-15.986336z" fill="#8a8a8a" p-id="1518"></path></svg>