<svg class="icon" style="width: 1em; height: 1em;vertical-align: middle;fill: currentColor;overflow: hidden;" viewBox="0 0 1024 1024" version="1.1" xmlns="http://www.w3.org/2000/svg" p-id="4827"><path d="M845.824 932.864H178.176c-48.128 0-87.04-38.912-87.04-87.04V178.176c0-48.128 38.912-87.04 87.04-87.04h667.648c48.128 0 87.04 38.912 87.04 87.04v667.648c0 48.128-38.912 87.04-87.04 87.04z" fill="#40BA49" p-id="4828"></path><path d="M416.256 592.896c-10.752 6.144-24.576 1.024-31.744-9.728l-2.048-3.072-64-141.824c-1.024-1.024-1.024-3.072-1.024-5.12 0-3.072 1.024-6.144 3.072-7.68s5.12-4.096 7.68-3.072c3.072 0 5.12 1.024 7.168 2.048l76.288 54.272c8.704 6.144 20.992 7.68 31.744 4.096l358.4-159.232C737.28 248.32 631.296 198.656 511.488 198.656c-196.096 0-354.304 132.608-354.304 295.936 0 89.088 47.616 169.472 122.88 223.744 6.144 4.096 9.728 11.776 9.728 18.944 0 3.072 0 5.12-1.024 7.68l-15.872 59.392c-1.024 3.072-2.048 6.144-2.048 8.704 0 7.168 5.12 11.776 11.776 11.776 2.048 0 5.12-1.024 7.168-2.048l77.312-44.544c8.704-6.144 19.968-7.168 29.696-4.096 37.376 10.752 76.288 15.872 115.712 15.872 196.096 0 354.304-132.608 354.304-294.912 0-48.64-13.824-96.256-40.448-136.704l-408.064 232.448-2.048 2.048z" fill="#FFFFFF" p-id="4829"></path></svg>